<svg width="200" height="200" viewBox="0 0 200 200" fill="none" xmlns="http://www.w3.org/2000/svg">
<path d="M105.361 88.5827H100.159C99.6497 88.5827 99.3672 88.9234 99.3105 89.4344L99.1408 92.0463C97.0486 89.6615 94.2212 87.9581 90.7158 87.9581C82.9688 87.9581 77.3145 94.431 77.3145 102.55C77.3145 110.67 82.9688 117.143 90.7158 117.143C94.3347 117.143 97.1054 115.496 99.0841 113.168L99.3105 115.553C99.3672 116.064 99.6497 116.405 100.159 116.405H105.361C105.87 116.405 106.209 116.064 106.209 115.553V89.4344C106.209 88.9234 105.87 88.5827 105.361 88.5827ZM91.6201 110.329C87.4924 110.329 84.4959 106.979 84.4959 102.494C84.4959 98.0649 87.4924 94.7717 91.6201 94.7717C95.6916 94.7717 98.6887 98.292 98.6887 102.494C98.6887 106.695 95.6916 110.329 91.6201 110.329Z" fill="#7D7D7D"/>
<path d="M112.709 75.8073V115.553C112.709 116.064 113.048 116.405 113.557 116.405H119.325C119.834 116.405 120.173 116.064 120.173 115.553V75.8073C120.173 75.2962 119.834 74.9556 119.325 74.9556H113.557C113.048 74.9556 112.709 75.2962 112.709 75.8073Z" fill="#7D7D7D"/>
<path d="M127.266 75.8073V115.553C127.266 116.064 127.605 116.405 128.114 116.405H133.881C134.39 116.405 134.729 116.064 134.729 115.553V75.8073C134.729 75.2962 134.39 74.9556 133.881 74.9556H128.114C127.605 74.9556 127.266 75.2962 127.266 75.8073Z" fill="#7D7D7D"/>
<path d="M154.782 117.143C162.755 117.143 169.145 110.727 169.145 102.55C169.145 94.3742 162.755 87.9581 154.782 87.9581C146.809 87.9581 140.42 94.3742 140.42 102.55C140.42 110.727 146.809 117.143 154.782 117.143ZM154.782 110.216C150.768 110.216 147.601 107.036 147.601 102.55C147.601 98.0649 150.768 94.8853 154.782 94.8853C158.74 94.8853 161.963 98.0649 161.963 102.55C161.963 107.036 158.74 110.216 154.782 110.216Z" fill="#7D7D7D"/>
<path d="M199.243 88.5829H193.306C192.853 88.5829 192.457 88.81 192.288 89.2642L185.559 107.661L178.773 89.2642C178.604 88.81 178.208 88.5829 177.756 88.5829H171.932C171.31 88.5829 171.027 88.9236 171.253 89.5481L181.94 116.462L177.925 126.227C177.643 126.852 177.982 127.193 178.604 127.193H184.259C184.711 127.193 185.107 126.966 185.276 126.512L199.921 89.5481C200.148 88.9236 199.865 88.5829 199.243 88.5829Z" fill="#7D7D7D"/>
<path d="M26.265 70.6506L52.5299 85.4616V115.083L26.265 129.895L0 115.083V85.4616L26.265 70.6506Z" fill="#38393A"/>
<path d="M26.2891 70.6506L43.3613 100.273H9.2168L26.2891 70.6506Z" fill="#B5B5B5"/>
<path d="M26.2832 70.6506L52.5677 85.4616L43.358 100.273L26.2832 70.6506Z" fill="#8F8F8F"/>
<path d="M26.2763 70.6506L9.21162 100.273L0.00195312 85.4616L26.2763 70.6506Z" fill="#CDCDCD"/>
<path d="M43.3146 100.278L52.5242 115.089L26.2832 129.9L43.3146 100.278Z" fill="#5C5C5C"/>
<path d="M0.00195312 115.088L9.21164 100.277L26.2864 129.899L0.00195312 115.088Z" fill="#B0B0B0"/>
<path d="M26.2871 129.898L9.21484 100.276H43.3593L26.2871 129.898Z" fill="#9B9B9B"/>
<path d="M9.21162 100.281L0.00195312 115.092L0.00196662 85.4698L9.21162 100.281Z" fill="#E0E0E0"/>
</svg>
