<svg width="200" height="200" viewBox="0 0 200 200" fill="none" xmlns="http://www.w3.org/2000/svg">
<path d="M197.941 92.6137C197.941 91.8152 197.403 91.2828 196.516 91.2828L194.774 91.3161L194.806 95.3752H195.756V93.9778H196.326L197.149 95.3752H198.258L197.276 93.8115C197.479 93.693 197.648 93.5193 197.765 93.3085C197.882 93.0977 197.943 92.8577 197.941 92.6137ZM196.326 93.146H195.724V92.1146H196.421C196.546 92.1002 196.672 92.137 196.772 92.2176C196.873 92.2981 196.94 92.4162 196.959 92.5471V92.5804C196.957 92.6627 196.938 92.7435 196.904 92.8176C196.87 92.8917 196.822 92.9576 196.762 93.0109C196.702 93.0641 196.633 93.1037 196.557 93.127C196.482 93.1503 196.403 93.1568 196.326 93.146V93.146ZM55.8352 111.379C54.22 111.379 53.1115 110.048 53.1115 108.085V99.1349H59.7623V92.8133H53.1273L53.064 85.5601H45.7164L45.7798 109.715C45.7798 114.606 48.8835 117.933 53.4441 117.933C55.851 117.933 58.1313 117.567 59.9365 116.702V110.547C58.6546 111.172 57.2464 111.458 55.8352 111.379V111.379ZM73.3807 92.4141C66.5398 92.4141 61.2825 98.0037 61.2825 105.423C61.2825 112.776 66.5398 117.9 73.7924 117.9C77.8779 117.9 81.71 116.37 84.0536 113.209L78.4163 110.514C77.2761 111.612 75.5343 112.044 73.9824 112.044C71.4488 112.044 68.9151 110.68 68.5667 107.885H85.3838C85.6365 106.887 85.7643 105.858 85.7638 104.824C85.7638 97.2052 80.4749 92.4141 73.3965 92.4141H73.3807ZM68.5667 102.994C68.7884 99.6673 71.0687 98.1368 73.5707 98.1368C76.3894 98.1368 78.5113 99.8004 78.5113 102.662V102.994H68.5667ZM38.7331 111.379C37.1179 111.379 36.0094 110.048 36.0094 108.085V99.1349H42.6602V92.8133H36.0253L35.9619 85.5601H28.6143L28.6777 109.715C28.6777 114.606 31.7814 117.933 36.342 117.933C38.7489 117.933 41.0292 117.567 42.8344 116.702V110.547C41.5534 111.175 40.1445 111.461 38.7331 111.379V111.379ZM12.9216 92.4141C6.61915 92.4141 0 96.7726 0 105.556C0 112.876 4.68724 118 10.6096 118C13.9984 118 16.5637 116.569 18.2422 114.041L18.4639 117.567H25.574V105.856C25.574 96.939 19.319 92.4141 12.9216 92.4141V92.4141ZM12.9216 111.246C9.72286 111.246 7.41091 108.75 7.41091 105.224C7.41091 101.697 9.69119 99.2015 12.9216 99.2015C15.8986 99.2015 18.3689 101.93 18.3689 105.224C18.3689 108.518 15.8986 111.246 12.9216 111.246V111.246ZM196.167 89.4529C193.855 89.4861 192.367 91.0499 192.399 93.3789C192.43 95.708 193.95 97.2384 196.262 97.2052C198.511 97.1719 200.031 95.6081 200 93.2458C199.968 90.8836 198.448 89.4196 196.167 89.4529V89.4529ZM196.262 96.5397C194.457 96.573 193.222 95.3087 193.222 93.3789C193.222 91.4492 194.394 90.1516 196.199 90.1183C198.004 90.085 199.208 91.3494 199.239 93.3124C199.239 95.2089 198.036 96.5065 196.278 96.5397H196.262ZM160.253 92.8466L155.122 108.484L149.928 92.8466H141.947L151.512 117.534H158.669L168.234 92.8466H160.253ZM179.287 92.4141C172.446 92.4141 167.189 98.0037 167.189 105.423C167.189 112.776 172.446 117.9 179.699 117.9C183.784 117.9 187.616 116.37 189.96 113.209L184.323 110.514C183.182 111.612 181.441 112.044 179.889 112.044C177.355 112.044 174.821 110.68 174.473 107.885H191.29C191.543 106.887 191.671 105.858 191.67 104.824C191.67 97.2052 186.381 92.4141 179.287 92.4141ZM184.418 102.994H174.473C174.695 99.6673 176.975 98.1368 179.477 98.1368C182.296 98.1368 184.418 99.8004 184.418 102.662V102.994ZM136.278 82C133.681 82 131.718 83.8299 131.718 86.3919C131.718 88.9538 133.681 90.8503 136.278 90.8503C138.875 90.8503 140.839 88.9871 140.839 86.3919C140.839 83.7967 138.907 82 136.278 82V82ZM102.929 92.3808C101.444 92.3556 99.9785 92.7345 98.6743 93.4808C97.3701 94.2271 96.272 95.3153 95.4867 96.6396L95.2333 92.8466H88.1391V117.534H95.4867V104.591C95.6451 101.497 98.0204 99.1349 100.617 99.1349C103.531 99.1349 104.861 101.431 104.861 104.325V117.501H112.177V103.128C112.177 96.8725 108.551 92.3808 102.929 92.3808V92.3808ZM125.352 111.379C123.737 111.379 122.628 110.048 122.628 108.085V99.1349H129.279V92.8133H122.628L122.565 85.5601H115.217L115.281 109.715C115.281 114.606 118.385 117.933 122.945 117.933C125.352 117.933 127.632 117.567 129.438 116.702V110.547C128.161 111.172 126.758 111.458 125.352 111.379V111.379ZM132.573 92.8466V117.534H139.984V92.8466C138.885 93.6115 137.596 94.0194 136.278 94.0194C134.96 94.0194 133.672 93.6115 132.573 92.8466V92.8466Z" fill="black"/>
</svg>
