<svg width="770" height="424" viewBox="0 0 770 424" fill="none" xmlns="http://www.w3.org/2000/svg">
<path d="M251.56 290.964C255.028 290.862 257.782 289.944 259.822 288.312C261.862 286.578 262.882 284.334 262.882 281.479C262.882 274.747 258.496 271.381 249.725 271.381C245.747 271.381 242.891 271.585 241.157 271.789V287.088C241.157 289.74 244.319 291.066 250.745 291.066H251.56V290.964ZM241.259 252.819V268.933C242.279 269.035 243.299 269.137 244.319 269.137C248.807 269.137 252.274 268.526 254.62 267.2C257.272 265.772 258.496 263.426 258.496 260.264V259.958C258.292 255.164 254.62 252.513 247.277 252.207H246.257C244.625 252.207 242.891 252.411 241.259 252.819ZM228 250.677V250.167L250.235 250.065H250.745C256.864 250.065 261.454 251.187 264.412 253.43C266.86 255.266 268.083 257.51 268.083 260.366C268.083 263.018 266.962 265.058 264.616 266.69C262.576 268.118 260.128 268.933 257.068 269.239C261.556 269.749 265.126 270.973 267.879 272.911C270.939 275.155 272.469 277.909 272.469 281.377C272.469 286.68 269.001 290.25 262.27 292.188C260.332 292.8 257.68 293.106 254.314 293.208H252.682C251.255 293.208 249.011 293.208 246.155 293.106C240.851 293.004 238.097 293.004 237.995 293.004L228 293.106V292.596C230.346 291.984 231.57 290.658 231.57 288.414V254.858C231.57 252.717 230.346 251.289 228 250.677Z" fill="white"/>
<path d="M285.626 276.787H301.333L293.479 259.856L285.626 276.787ZM315.816 285.864C317.652 289.74 319.895 291.984 322.649 292.596V293.106C319.385 293.004 316.326 293.004 313.674 293.004C311.022 293.004 307.758 293.004 304.188 293.106V292.596C305.514 292.392 306.33 291.78 306.738 290.862C306.942 290.556 306.942 290.25 306.942 289.842C306.942 289.332 306.738 288.822 306.432 288.108L302.556 279.949H284.3L281.648 285.456C280.73 287.394 280.22 288.924 280.22 289.74V289.944C280.322 291.27 281.24 292.188 282.872 292.596V293.106C281.036 293.004 278.996 293.004 276.548 293.004C275.426 293.004 273.284 293.004 270.123 293.106V292.596C272.774 291.984 275.222 289.434 277.262 285.048L294.193 249.656H298.987L315.816 285.864Z" fill="white"/>
<path d="M366.914 286.578C361.611 291.678 354.777 294.33 346.21 294.33C338.254 294.33 331.829 292.392 327.137 288.516C322.139 284.538 319.589 278.827 319.589 271.483V270.973C319.691 264.242 322.649 258.836 328.361 254.756C333.562 251.084 339.886 249.249 347.128 249.249H347.434C351.717 249.351 355.797 249.86 359.877 251.084C360.693 251.288 361.407 251.492 362.121 251.492C363.243 251.492 364.263 251.186 365.078 250.472C365.282 250.574 365.486 250.574 365.588 250.574V251.39C365.588 254.96 365.894 258.938 366.506 263.222L365.792 263.528C364.874 260.162 362.937 257.306 359.877 255.164C356.511 252.818 352.737 251.696 348.352 251.594H348.046C342.538 251.594 338.254 253.328 334.99 256.796C331.625 260.264 329.891 265.16 329.891 271.177C329.891 277.603 331.625 282.6 335.092 286.068C338.356 289.434 342.742 291.066 348.352 291.168H348.657C356.001 291.168 361.917 289.23 366.302 285.252L366.914 286.578Z" fill="white"/>
<path d="M380.072 276.787H395.779L387.926 259.856L380.072 276.787ZM410.262 285.864C412.098 289.74 414.342 291.984 417.096 292.596V293.106C413.832 293.004 410.772 293.004 408.12 293.004C405.469 293.004 402.205 293.004 398.635 293.106V292.596C399.961 292.392 400.777 291.78 401.185 290.862C401.389 290.556 401.389 290.25 401.389 289.842C401.389 289.332 401.185 288.822 400.879 288.108L397.003 279.949H378.542L375.891 285.456C374.973 287.394 374.463 288.924 374.463 289.74V289.944C374.565 291.27 375.483 292.188 377.114 292.596V293.106C375.279 293.004 373.239 293.004 370.791 293.004C369.669 293.004 367.527 293.004 364.365 293.106V292.596C367.017 291.984 369.465 289.434 371.505 285.048L388.232 249.555H393.025L410.262 285.864Z" fill="white"/>
<path d="M437.085 269.443C441.776 268.424 444.02 265.568 444.02 260.672C444.02 258.02 443.204 255.98 441.47 254.552C439.736 253.124 437.391 252.411 434.433 252.411C433.005 252.411 431.679 252.615 430.353 252.819V269.953C433.311 269.851 435.555 269.749 437.085 269.443ZM430.455 272.707V288.414C430.455 290.658 431.781 291.984 434.331 292.698V293.208C430.863 293.106 427.905 293.106 425.661 293.106C423.621 293.106 420.868 293.106 417.298 293.208V292.698C419.644 292.086 420.868 290.76 420.868 288.516V254.96C420.868 252.717 419.644 251.391 417.298 250.779V250.269C421.99 250.371 424.641 250.371 425.049 250.371C426.579 250.371 428.517 250.269 430.761 250.167C432.903 250.065 434.637 250.065 436.167 250.065C441.266 250.065 445.448 250.983 448.712 252.717C451.976 254.552 453.608 257 453.71 260.06V260.264C453.71 262.814 452.894 264.956 451.262 266.996C449.528 269.035 446.978 270.463 443.714 271.279C444.938 272.503 447.182 275.563 450.242 280.255C453.71 285.456 455.443 288.21 455.647 288.312C457.687 290.862 459.727 292.29 461.971 292.596V293.106H455.239C450.14 293.106 446.57 291.372 444.53 288.006C443.918 286.986 442.796 284.742 441.062 281.275C439.532 278.215 438.207 275.869 437.187 274.339C436.167 272.809 434.841 272.095 433.311 272.095H431.373C430.659 272.095 430.455 272.299 430.455 272.707Z" fill="white"/>
<path d="M481.861 291.067C487.777 291.067 492.366 289.333 495.528 285.967C498.69 282.602 500.322 277.808 500.322 271.484C500.322 265.671 498.486 261.081 494.814 257.817C491.143 254.451 486.043 252.717 479.515 252.411H478.189C476.659 252.411 475.13 252.615 473.6 252.819V285.967C473.6 288.211 474.518 289.537 476.251 290.251C477.475 290.863 479.311 291.067 481.861 291.067ZM460.646 293.107V292.597C462.992 291.985 464.216 290.659 464.216 288.415V254.859C464.216 252.615 462.992 251.289 460.646 250.678V250.168C463.808 250.27 466.766 250.27 469.418 250.27C470.132 250.27 472.478 250.27 476.557 250.168C478.291 250.066 479.617 250.066 480.739 250.168H483.085C491.551 250.372 498.384 252.513 503.28 256.491C508.277 260.469 510.827 265.671 510.827 272.198C510.827 277.91 508.583 282.703 504.096 286.681C498.996 291.169 491.653 293.413 482.065 293.413H481.759C480.739 293.413 478.801 293.311 476.149 293.209C473.498 293.107 471.458 293.005 469.928 293.005C466.868 293.005 463.808 293.005 460.646 293.107Z" fill="white"/>
<path d="M527.554 254.858V288.414C527.554 290.658 528.778 291.984 531.123 292.596V293.106C527.656 293.004 524.8 293.004 522.76 293.004C520.72 293.004 517.966 293.004 514.396 293.106V292.596C516.742 291.984 517.966 290.658 517.966 288.414V254.858C517.966 252.614 516.742 251.288 514.396 250.676V250.167C517.864 250.268 520.72 250.269 522.76 250.269C524.8 250.269 527.656 250.268 531.123 250.167V250.676C528.778 251.288 527.554 252.716 527.554 254.858Z" fill="white"/>
<path d="M371.789 160.224C371.569 160.297 371.274 160.15 371.201 159.856C371.054 159.562 371.127 159.194 371.274 159.121C371.421 158.974 371.642 159.047 371.863 159.415C372.01 159.856 372.01 160.15 371.789 160.224ZM416.353 213.465C417.309 211.774 420.324 206.7 421.427 203.905C422.604 201.331 423.56 198.61 424.295 195.743C426.428 187.359 426.501 178.902 424.589 171.255C422.751 163.901 419 157.062 412.455 149.12C410.985 147.281 410.47 145.884 410.764 144.487C410.838 144.119 410.838 143.899 410.691 143.825C410.543 143.752 410.176 143.678 409.44 144.046C405.469 145.811 402.822 149.561 400.028 153.606C398.263 156.179 396.351 158.827 393.997 161.18C391.644 163.533 387.232 166.548 384.732 165.151C383.849 164.636 383.408 163.386 383.335 161.033V160.886L383.408 160.812C386.497 158.606 388.188 154.929 388.188 153.311C388.188 153.091 388.188 152.944 388.114 152.797C388.041 152.65 387.967 152.576 387.82 152.502C386.644 151.988 383.114 152.87 381.128 153.753L380.981 153.826L380.834 153.679C379.143 151.473 377.819 150.517 377.084 150.738C376.643 150.885 376.054 151.62 375.907 154.562V154.709L375.76 154.782C374.657 155.297 373.701 155.812 372.745 156.4C370.539 157.797 369.73 158.68 369.804 159.562C369.877 160.371 370.613 161.401 375.466 162.43L375.613 162.504V162.651C375.687 163.386 375.613 164.121 375.393 164.563C375.245 165.004 375.025 165.151 374.584 165.224C370.98 165.592 367.892 164.268 364.73 161.106C362.523 158.827 360.685 156.253 358.994 153.826C356.126 149.782 353.478 145.884 349.287 143.972C348.772 143.752 348.257 143.678 348.11 143.825C347.963 143.972 347.963 144.193 348.037 144.56C348.404 145.811 347.816 147.281 346.419 149.046C340.095 156.841 336.197 163.901 334.138 171.328C332.52 177.211 332.005 187.065 334.432 195.816C335.241 198.758 336.197 201.478 337.374 203.979C338.477 206.773 341.345 211.7 342.227 213.244L342.154 213.612C336.638 206.994 326.931 191.036 331.417 170.666C333.108 162.871 337.668 155.738 344.213 147.723C345.904 145.59 346.713 141.766 350.096 143.31C351.272 143.899 352.375 144.487 353.405 145.075C360.906 140.075 369.73 137.354 378.922 137.354C388.335 137.354 397.307 140.148 404.881 145.369C405.543 144.855 406.278 144.34 407.161 143.899C411.72 141.398 411.573 144.413 414.367 147.796C421.133 155.959 425.472 162.945 427.089 170.666C431.502 192.139 421.942 207.656 416.279 213.759L416.353 213.465ZM379.069 228.908C366.789 228.908 355.243 224.128 346.639 215.524C345.757 214.642 344.874 213.686 343.992 212.656C342.742 210.818 340.609 207.509 339.139 203.243C337.668 198.831 336.859 193.757 339.065 192.801C340.536 192.139 342.448 193.757 344.727 197.802C345.169 198.61 345.463 199.125 345.61 199.64L345.757 199.934C345.83 200.155 346.051 200.302 346.198 200.375C346.272 200.375 346.345 200.375 346.419 200.375C346.639 200.228 346.566 199.787 346.345 199.493C346.051 198.905 345.83 198.463 345.463 197.581C343.477 192.727 340.683 183.094 344.727 181.256C345.389 180.961 346.051 180.961 346.86 181.256C349.434 182.285 352.155 186.477 353.331 189.198C353.772 190.301 353.92 190.742 353.993 191.257L354.067 191.477C354.14 191.698 354.214 191.919 354.361 191.992C354.434 192.066 354.508 192.066 354.581 191.992C354.802 191.919 354.802 191.477 354.728 191.11V191.036C354.581 190.448 354.434 190.08 354.287 188.977C353.92 186.403 354.508 183.535 356.567 183.021C359.141 182.359 361.494 185.153 362.744 187.8C363.479 189.345 363.994 191.477 364.141 193.095C364.141 193.316 364.141 193.463 364.141 193.683C364.141 194.566 363.921 195.007 363.185 195.375C362.818 195.595 362.376 195.743 361.935 195.89C361.567 196.037 361.273 196.11 361.053 196.257C360.244 196.699 360.023 197.287 360.023 197.875C360.023 198.316 360.17 198.758 360.317 199.199C360.759 200.155 361.273 200.596 361.788 200.89C363.847 199.419 367.083 198.243 369.877 199.64C373.922 201.699 377.525 211.627 378.849 224.349C378.996 225.452 378.996 226.114 378.996 226.702C378.996 226.996 379.069 227.217 379.143 227.29C379.216 227.364 379.29 227.364 379.364 227.364C379.437 227.364 379.511 227.364 379.584 227.29C379.658 227.217 379.731 226.996 379.731 226.702C379.731 226.114 379.731 225.525 379.878 224.349C381.202 211.627 384.805 201.699 388.85 199.64C391.644 198.243 394.88 199.419 396.939 200.89C397.454 200.596 397.969 200.081 398.41 199.199C398.557 198.831 398.704 198.316 398.704 197.875C398.704 197.287 398.483 196.699 397.674 196.257C397.454 196.11 397.086 196.037 396.792 195.89C396.351 195.743 395.909 195.595 395.542 195.375C394.806 195.007 394.586 194.639 394.586 193.61C394.586 193.463 394.586 193.316 394.586 193.095C394.659 191.33 395.101 189.492 395.836 187.874C397.307 184.565 400.028 182.432 402.087 183.021C404.146 183.535 404.734 186.403 404.366 188.977C404.219 190.007 404.146 190.374 403.925 191.036V191.11C403.852 191.477 403.852 191.919 404.072 191.992C404.146 191.992 404.219 191.992 404.293 191.992C404.44 191.919 404.587 191.698 404.66 191.477L404.734 191.183C404.808 190.668 404.955 190.154 405.396 189.198C406.499 186.697 410.543 179.858 413.926 181.256C414.662 181.55 415.176 182.138 415.544 182.947C416.941 186.403 414.882 193.757 413.191 197.507C412.823 198.39 412.602 198.831 412.308 199.419C412.161 199.787 412.014 200.155 412.235 200.302C412.308 200.375 412.382 200.375 412.455 200.302C412.602 200.228 412.75 200.081 412.897 199.861L413.044 199.566C413.264 199.125 413.485 198.537 413.926 197.728C416.206 193.683 418.118 192.066 419.589 192.727C421.795 193.683 420.986 198.758 419.515 203.17C418.853 205.008 418.118 206.7 417.382 208.17C415.691 210.744 413.706 213.171 411.426 215.377C402.896 224.128 391.35 228.908 379.069 228.908ZM382.82 155.591C382.967 155.223 383.702 155.076 383.849 155.37C384.07 155.665 383.776 156.768 383.187 157.135C382.82 156.4 382.673 155.959 382.82 155.591ZM377.231 157.724C377.378 157.135 377.966 156.473 378.996 156.473C380.025 156.473 380.467 157.209 380.614 157.797C380.687 158.238 380.467 158.459 380.172 158.533C379.658 158.606 378.334 158.606 377.672 158.459C377.157 158.312 377.157 158.165 377.231 157.724ZM373.481 188.389C372.598 188.021 371.863 187.874 370.613 188.021C368.039 188.315 366.568 190.963 366.274 194.934C367.377 192.875 369.142 191.404 371.495 191.404C374.878 191.477 376.643 194.713 378.113 201.773C378.849 205.155 379.143 207.876 379.29 210.744C379.364 202.876 381.423 196.551 384.879 188.536C387.306 182.8 389.806 174.417 387.526 169.857C386.423 167.651 385.541 167.21 384.364 166.328C385.982 166.769 387.6 167.21 389.953 168.46C393.777 170.446 396.792 169.563 398.41 165.151C400.616 159.268 401.572 155.37 403.704 151.914C405.102 149.708 406.205 148.09 407.97 146.693C408.411 146.325 408.852 146.105 409.146 146.252C409.44 146.399 409.367 146.693 409.44 147.134C409.587 147.723 410.102 148.531 410.911 149.635C413.706 153.017 417.603 159.856 419.441 166.328C422.015 175.446 420.839 184.712 418.191 190.007C418.044 190.374 417.824 190.374 417.971 190.007C420.986 179.05 419.074 166.328 412.235 155.076C413.853 166.107 411.426 176.696 407.97 182.726C407.823 182.947 407.749 182.873 407.823 182.653C411.72 172.063 412.014 154.12 408.411 149.635C407.97 149.046 407.675 149.046 407.234 149.487C404.881 151.841 402.969 158.385 401.94 164.416C400.322 173.828 397.969 176.623 395.689 177.064C394.586 177.285 393.483 176.99 392.674 176.182C391.791 175.373 390.762 173.828 389.953 172.063C391.056 177.799 389.879 181.77 388.041 185.374C387.673 186.109 387.526 186.844 387.673 186.992C387.82 187.139 388.262 186.992 389.218 186.55C390.468 185.888 391.35 186.036 392.086 187.065C392.894 188.168 393.409 190.963 393.556 193.978C393.63 196.037 393.703 196.478 394.953 196.846C396.277 197.213 397.748 197.802 397.454 199.125C395.983 198.537 393.63 198.169 392.159 198.022C392.086 196.037 390.468 193.095 387.673 193.389C383.849 193.831 381.496 200.522 380.246 208.317C379.731 211.847 379.584 215.23 379.216 219.127C378.775 215.377 378.702 211.847 378.187 208.391C376.937 200.596 374.657 193.904 370.833 193.463C367.965 193.169 366.421 195.963 366.274 198.022C364.877 198.096 362.376 198.537 360.906 199.125C360.538 197.654 362.303 197.14 363.479 196.772C364.656 196.478 364.73 195.595 364.803 193.978C364.95 190.963 365.465 188.095 366.274 186.992C366.936 186.109 367.745 185.815 369.068 186.477C370.024 186.918 370.465 187.065 370.613 186.918C370.76 186.771 370.539 185.962 370.171 185.374C368.701 183.241 367.156 179.932 367.23 176.623C367.23 175.667 366.347 175.961 365.833 176.255C365.171 176.696 364.141 177.211 362.891 176.917C359.876 176.329 358.038 173.24 356.493 164.195C355.464 158.165 353.552 151.62 351.199 149.267C350.757 148.826 350.39 148.826 349.949 149.34C346.419 153.9 346.639 171.769 350.537 182.359C350.61 182.579 350.537 182.653 350.39 182.432C346.933 176.402 344.507 165.666 346.125 154.635C338.844 166.842 337.521 179.491 340.315 189.712C340.462 190.154 340.242 190.08 340.094 189.712C337.447 184.344 336.271 175.152 338.918 166.107C340.756 159.636 344.58 152.797 347.375 149.414C348.257 148.311 348.772 147.355 348.919 146.914C349.066 146.546 348.919 146.252 349.213 146.031C349.434 145.811 350.022 146.105 350.463 146.472C352.302 147.943 353.405 149.487 354.802 151.694C356.935 155.15 357.964 159.047 360.097 164.93C361.715 169.269 364.656 170.151 368.554 168.239C371.201 166.842 372.525 166.401 374.951 165.96C375.54 165.886 375.907 165.739 376.054 165.592C376.128 165.445 376.128 165.151 376.128 164.416C376.128 164.048 376.128 163.754 376.201 163.533C376.275 163.239 376.496 163.239 376.569 163.533C376.716 164.268 376.79 165.004 376.937 165.813C377.01 166.18 377.01 166.254 376.643 166.401C374.216 167.21 372.672 168.019 371.569 169.857C369.068 174.049 372.157 184.124 373.481 188.389ZM417.015 145.59C406.94 135.589 393.556 130 379.364 130C365.097 130 351.713 135.515 341.639 145.59C331.564 155.591 326.049 168.975 326.049 183.168C326.049 197.36 331.564 210.671 341.639 220.745C351.713 230.746 365.097 236.335 379.364 236.335C393.556 236.335 406.94 230.82 417.015 220.745C427.089 210.671 432.605 197.36 432.605 183.168C432.678 168.975 427.163 155.665 417.015 145.59Z" fill="white"/>
<path d="M535.547 291.316H536.302V289.638H536.89C537.309 289.638 537.561 289.722 537.729 289.806C537.98 289.974 538.148 290.31 538.148 290.813V291.149V291.316C538.148 291.316 538.148 291.316 538.148 291.4H538.819V291.316C538.819 291.316 538.819 291.232 538.819 291.065C538.819 290.981 538.819 290.813 538.819 290.729V290.394C538.819 290.142 538.736 289.974 538.568 289.722C538.4 289.471 538.148 289.387 537.813 289.303C538.064 289.303 538.316 289.219 538.4 289.135C538.652 288.967 538.819 288.716 538.819 288.296C538.819 287.793 538.568 287.373 538.148 287.205C537.897 287.121 537.561 287.038 536.974 287.038H535.463V291.316H535.547ZM537.645 288.967C537.477 289.051 537.225 289.051 536.974 289.051H536.302V287.541H536.974C537.393 287.541 537.729 287.625 537.897 287.709C538.064 287.793 538.148 288.044 538.148 288.296C538.064 288.632 537.98 288.883 537.645 288.967ZM539.826 286.45C539.071 285.695 538.148 285.36 537.058 285.36C535.967 285.36 535.044 285.695 534.289 286.45C533.534 287.205 533.198 288.128 533.198 289.219C533.198 290.31 533.534 291.232 534.289 291.988C535.044 292.743 535.967 293.162 537.058 293.162C538.148 293.162 539.071 292.827 539.826 291.988C540.581 291.232 541.001 290.31 541.001 289.219C541.001 288.128 540.581 287.205 539.826 286.45ZM539.491 286.786C540.162 287.457 540.497 288.212 540.497 289.135C540.497 290.058 540.162 290.813 539.491 291.484C538.819 292.155 538.064 292.491 537.141 292.491C536.219 292.491 535.464 292.155 534.792 291.484C534.121 290.813 533.786 290.058 533.786 289.135C533.786 288.212 534.121 287.457 534.792 286.786C535.464 286.115 536.219 285.779 537.141 285.779C537.98 285.863 538.819 286.199 539.491 286.786Z" fill="white"/>
</svg>
