<svg width="200" height="200" viewBox="0 0 200 200" fill="none" xmlns="http://www.w3.org/2000/svg">
<path d="M31.4592 68.0669C31.4511 68.1063 31.4429 73.1035 31.4429 79.1717C31.447 86.4135 31.4347 90.1938 31.4061 90.1781C31.3856 90.1662 31.1648 89.993 30.9153 89.7961C28.2201 87.6618 25.0954 86.3623 21.754 85.9882C21.0751 85.9094 18.9607 85.9252 18.2163 86.0079C13.7543 86.5198 9.94255 88.3548 6.72384 91.5327C3.42334 94.7932 1.223 99.1131 0.368224 104.012C0.0819351 105.654 -0.00395169 106.768 0.000138157 108.757C0.004228 110.112 0.0410366 110.734 0.184181 111.868C0.793568 116.637 2.72398 120.921 5.775 124.272C6.17581 124.713 7.38231 125.863 7.84855 126.249C11.1163 128.942 14.9935 130.518 19.3819 130.931C19.9995 130.986 21.7867 131.01 22.2857 130.963C25.7294 130.651 29.0667 129.116 32.1709 126.41C32.4776 126.143 32.952 125.702 33.222 125.426L33.7168 124.93V130.021L47.4792 130.002L47.4832 68H39.4794C31.8928 68 31.4756 68.0039 31.4592 68.0669ZM23.0464 100.684C24.5269 100.83 25.9829 101.373 27.1731 102.224C27.5861 102.519 28.3141 103.193 28.6495 103.583C30.494 105.748 31.0175 108.769 30.0073 111.395C29.2221 113.443 27.578 115.109 25.4962 115.971C22.9196 117.042 19.9136 116.77 17.5783 115.262C15.6724 114.026 14.3678 112.053 14.0242 109.875C13.4762 106.406 15.3084 103.012 18.5639 101.472C19.9504 100.814 21.5291 100.539 23.0464 100.684Z" fill="url(#paint0_linear_852_273)"/>
<path d="M59.8548 68.0433C59.3191 68.0985 58.7342 68.2245 58.1412 68.4135C56.1126 69.0632 54.4399 70.4415 53.4747 72.2529C52.8244 73.4736 52.5545 74.5447 52.5545 75.8954C52.5545 77.7305 53.1802 79.4198 54.4031 80.8808C54.6894 81.2234 55.3519 81.8455 55.6995 82.1015C56.8897 82.9796 58.3784 83.5585 59.818 83.7081C63.5398 84.098 67.0243 82.0464 68.3781 78.6756C68.9547 77.2343 69.0652 75.4504 68.6644 73.9659C68.284 72.5601 67.5765 71.3551 66.5417 70.3509C64.779 68.6379 62.3374 67.7952 59.8548 68.0433Z" fill="url(#paint1_linear_852_273)"/>
<path d="M92.6146 85.9764C84.0096 86.5749 77.2777 90.0914 74.5948 95.3879C73.8995 96.7622 73.4946 98.1798 73.3433 99.7943C73.2737 100.527 73.3187 102.047 73.4292 102.748C74.1203 107.123 77.2736 110.234 83.163 112.352C85.0075 113.014 86.6557 113.471 90.2588 114.313C93.7556 115.132 94.8354 115.467 95.5838 115.955C96.2873 116.412 96.414 116.987 95.9069 117.404C95.0767 118.09 92.3406 118.503 88.766 118.48C84.5576 118.452 81.163 117.897 76.9873 116.554C76.1407 116.282 75.7031 116.133 74.2553 115.613L73.9199 115.491L73.9404 128.501L74.2471 128.596C79.384 130.159 84.1241 130.915 89.1955 130.982C96.1441 131.077 101.96 129.517 105.902 126.501C106.459 126.072 107.706 124.898 108.099 124.43C109.808 122.382 110.802 120.07 111.121 117.401C111.215 116.597 111.219 115.002 111.125 114.274C110.782 111.624 109.763 109.611 107.861 107.832C106.741 106.784 105.567 106.02 103.849 105.217C101.387 104.063 99.0274 103.394 93.7352 102.338C90.7905 101.751 89.6903 101.468 88.8683 101.082C88.0626 100.704 87.7027 100.22 87.8826 99.7589C88.1567 99.0776 89.6903 98.5697 92.2383 98.3216C95.866 97.9711 100.361 98.231 104.451 99.0343C105.772 99.2942 108.365 99.944 108.982 100.168L109.093 100.212V87.9374L108.573 87.7957C105.162 86.8663 101.686 86.2914 97.8046 86.0118C96.6104 85.9252 93.6248 85.9055 92.6146 85.9764Z" fill="url(#paint2_linear_852_273)"/>
<path d="M175.941 86.6931C172.645 86.9293 169.941 87.6303 167.169 88.9691C165.324 89.8552 163.844 90.8199 162.261 92.1588C162.032 92.3557 156.911 97.3253 150.883 103.205C144.854 109.084 139.754 114.042 139.55 114.223C138.45 115.184 137.133 115.774 135.636 115.987C135.059 116.066 133.889 116.046 133.333 115.947C131.865 115.68 130.507 115.002 129.477 114.014C128.38 112.959 127.603 111.502 127.354 110.017C126.884 107.225 128.16 104.394 130.585 102.83C132.72 101.456 135.456 101.251 137.754 102.303C138.777 102.767 139.198 103.086 140.613 104.465L141.771 105.587L143.088 104.307C146.302 101.188 152.584 95.0531 152.601 95.0177C152.621 94.9665 149.811 92.3163 149.271 91.8792C145.537 88.8471 141.12 87.1065 136.253 86.7442C135.558 86.6931 133.828 86.6931 133.08 86.7442C129.235 87.0081 125.481 88.2288 122.254 90.2726C120.908 91.1231 119.955 91.8753 118.72 93.0606C116.847 94.8681 115.563 96.585 114.377 98.8729C111.767 103.894 111.219 109.647 112.831 115.042C114.058 119.149 116.405 122.732 119.747 125.611C120.377 126.15 121.309 126.84 122.139 127.371C125.403 129.462 129.092 130.671 133.116 130.966C133.755 131.014 135.55 131.01 136.229 130.963C141.272 130.6 145.897 128.722 149.656 125.513C150.11 125.127 151.324 123.957 154.858 120.511C155.701 119.688 157.12 118.306 158.007 117.44C158.895 116.574 160.339 115.164 161.218 114.309C170.31 105.433 172.252 103.551 172.584 103.271C173.393 102.598 174.616 102.023 175.72 101.791C178.661 101.18 181.683 102.358 183.368 104.776C185.254 107.473 185.062 111.009 182.894 113.522C181.802 114.786 180.256 115.64 178.518 115.947C177.876 116.062 176.547 116.05 175.921 115.928C174.641 115.676 173.496 115.148 172.526 114.364C172.334 114.207 171.729 113.636 171.181 113.092C170.633 112.545 170.175 112.104 170.158 112.112C170.142 112.12 167.696 114.498 164.719 117.401L159.312 122.673L160.776 124.075C162.261 125.497 162.821 125.981 163.79 126.67C166.993 128.962 170.813 130.423 174.657 130.829C174.98 130.86 175.311 130.9 175.389 130.911C175.741 130.963 178.534 130.963 179.172 130.907C188.616 130.104 196.444 123.874 199.09 115.057C200.026 111.931 200.247 108.556 199.72 105.331C199.196 102.102 197.957 99.0501 196.071 96.3329C194.832 94.5491 193.127 92.7771 191.295 91.3673C187.835 88.7053 183.565 87.0868 179.082 86.7285C178.518 86.6812 176.403 86.6576 175.941 86.6931Z" fill="url(#paint3_linear_852_273)"/>
<path d="M52.53 130.021H68.9138V86.9018H52.53V130.021Z" fill="url(#paint4_linear_852_273)"/>
<defs>
<linearGradient id="paint0_linear_852_273" x1="187.413" y1="117.418" x2="5.59498" y2="115.296" gradientUnits="userSpaceOnUse">
<stop stop-color="#7A41FF"/>
<stop offset="0.927083" stop-color="#51A2FF"/>
</linearGradient>
<linearGradient id="paint1_linear_852_273" x1="187.413" y1="117.418" x2="5.59498" y2="115.296" gradientUnits="userSpaceOnUse">
<stop stop-color="#7A41FF"/>
<stop offset="0.927083" stop-color="#51A2FF"/>
</linearGradient>
<linearGradient id="paint2_linear_852_273" x1="187.413" y1="117.418" x2="5.59498" y2="115.296" gradientUnits="userSpaceOnUse">
<stop stop-color="#7A41FF"/>
<stop offset="0.927083" stop-color="#51A2FF"/>
</linearGradient>
<linearGradient id="paint3_linear_852_273" x1="187.413" y1="117.418" x2="5.59498" y2="115.296" gradientUnits="userSpaceOnUse">
<stop stop-color="#7A41FF"/>
<stop offset="0.927083" stop-color="#51A2FF"/>
</linearGradient>
<linearGradient id="paint4_linear_852_273" x1="187.413" y1="117.418" x2="5.59498" y2="115.296" gradientUnits="userSpaceOnUse">
<stop stop-color="#7A41FF"/>
<stop offset="0.927083" stop-color="#51A2FF"/>
</linearGradient>
</defs>
</svg>
