<svg width="200" height="200" viewBox="0 0 200 200" fill="none" xmlns="http://www.w3.org/2000/svg">
<path d="M31.4592 69.0669C31.4511 69.1063 31.4429 74.1035 31.4429 80.1717C31.447 87.4135 31.4347 91.1938 31.4061 91.1781C31.3856 91.1662 31.1648 90.993 30.9153 90.7961C28.2201 88.6618 25.0954 87.3623 21.754 86.9882C21.0751 86.9094 18.9607 86.9252 18.2163 87.0079C13.7543 87.5198 9.94255 89.3548 6.72384 92.5327C3.42334 95.7932 1.223 100.113 0.368224 105.012C0.0819351 106.654 -0.00395169 107.768 0.000138157 109.757C0.004228 111.112 0.0410366 111.734 0.184181 112.868C0.793568 117.637 2.72398 121.921 5.775 125.272C6.17581 125.713 7.38231 126.863 7.84855 127.249C11.1163 129.942 14.9935 131.518 19.3819 131.931C19.9995 131.986 21.7867 132.01 22.2857 131.963C25.7294 131.651 29.0667 130.116 32.1709 127.41C32.4776 127.143 32.952 126.702 33.222 126.426L33.7168 125.93V131.021L47.4792 131.002L47.4832 69H39.4794C31.8928 69 31.4756 69.0039 31.4592 69.0669ZM23.0464 101.684C24.5269 101.83 25.9829 102.373 27.1731 103.224C27.5861 103.519 28.3141 104.193 28.6495 104.583C30.494 106.748 31.0175 109.769 30.0073 112.395C29.2221 114.443 27.578 116.109 25.4962 116.971C22.9196 118.042 19.9136 117.77 17.5783 116.262C15.6724 115.026 14.3678 113.053 14.0242 110.875C13.4762 107.406 15.3084 104.012 18.5639 102.472C19.9504 101.814 21.5291 101.539 23.0464 101.684Z" fill="url(#paint0_linear_852_45)"/>
<path d="M59.8548 69.0433C59.3191 69.0985 58.7342 69.2245 58.1412 69.4135C56.1126 70.0632 54.4399 71.4415 53.4747 73.2529C52.8244 74.4736 52.5545 75.5447 52.5545 76.8954C52.5545 78.7305 53.1802 80.4198 54.4031 81.8808C54.6894 82.2234 55.3519 82.8455 55.6995 83.1015C56.8897 83.9796 58.3784 84.5585 59.818 84.7081C63.5398 85.098 67.0243 83.0464 68.3781 79.6756C68.9547 78.2343 69.0652 76.4504 68.6644 74.9659C68.284 73.5601 67.5765 72.3551 66.5417 71.3509C64.779 69.6379 62.3374 68.7952 59.8548 69.0433Z" fill="url(#paint1_linear_852_45)"/>
<path d="M92.6146 86.9764C84.0096 87.5749 77.2777 91.0914 74.5948 96.3879C73.8995 97.7622 73.4946 99.1798 73.3433 100.794C73.2737 101.527 73.3187 103.047 73.4292 103.748C74.1203 108.123 77.2736 111.234 83.163 113.352C85.0075 114.014 86.6557 114.471 90.2588 115.313C93.7556 116.132 94.8354 116.467 95.5838 116.955C96.2873 117.412 96.414 117.987 95.9069 118.404C95.0767 119.09 92.3406 119.503 88.766 119.48C84.5576 119.452 81.163 118.897 76.9873 117.554C76.1407 117.282 75.7031 117.133 74.2553 116.613L73.9199 116.491L73.9404 129.501L74.2471 129.596C79.384 131.159 84.1241 131.915 89.1955 131.982C96.1441 132.077 101.96 130.517 105.902 127.501C106.459 127.072 107.706 125.898 108.099 125.43C109.808 123.382 110.802 121.07 111.121 118.401C111.215 117.597 111.219 116.002 111.125 115.274C110.782 112.624 109.763 110.611 107.861 108.832C106.741 107.784 105.567 107.02 103.849 106.217C101.387 105.063 99.0274 104.394 93.7352 103.338C90.7905 102.751 89.6903 102.468 88.8683 102.082C88.0626 101.704 87.7027 101.22 87.8826 100.759C88.1567 100.078 89.6903 99.5697 92.2383 99.3216C95.866 98.9711 100.361 99.231 104.451 100.034C105.772 100.294 108.365 100.944 108.982 101.168L109.093 101.212V88.9374L108.573 88.7957C105.162 87.8663 101.686 87.2914 97.8046 87.0118C96.6104 86.9252 93.6248 86.9055 92.6146 86.9764Z" fill="url(#paint2_linear_852_45)"/>
<path d="M175.941 87.6931C172.645 87.9293 169.941 88.6303 167.169 89.9691C165.324 90.8552 163.844 91.8199 162.261 93.1588C162.032 93.3557 156.911 98.3253 150.883 104.205C144.854 110.084 139.754 115.042 139.55 115.223C138.45 116.184 137.133 116.774 135.636 116.987C135.059 117.066 133.889 117.046 133.333 116.947C131.865 116.68 130.507 116.002 129.477 115.014C128.38 113.959 127.603 112.502 127.354 111.017C126.884 108.225 128.16 105.394 130.585 103.83C132.72 102.456 135.456 102.251 137.754 103.303C138.777 103.767 139.198 104.086 140.613 105.465L141.771 106.587L143.088 105.307C146.302 102.188 152.584 96.0531 152.601 96.0177C152.621 95.9665 149.811 93.3163 149.271 92.8792C145.537 89.8471 141.12 88.1065 136.253 87.7442C135.558 87.6931 133.828 87.6931 133.08 87.7442C129.235 88.0081 125.481 89.2288 122.254 91.2726C120.908 92.1231 119.955 92.8753 118.72 94.0606C116.847 95.8681 115.563 97.585 114.377 99.8729C111.767 104.894 111.219 110.647 112.831 116.042C114.058 120.149 116.405 123.732 119.747 126.611C120.377 127.15 121.309 127.84 122.139 128.371C125.403 130.462 129.092 131.671 133.116 131.966C133.755 132.014 135.55 132.01 136.229 131.963C141.272 131.6 145.897 129.722 149.656 126.513C150.11 126.127 151.324 124.957 154.858 121.511C155.701 120.688 157.12 119.306 158.007 118.44C158.895 117.574 160.339 116.164 161.218 115.309C170.31 106.433 172.252 104.551 172.584 104.271C173.393 103.598 174.616 103.023 175.72 102.791C178.661 102.18 181.683 103.358 183.368 105.776C185.254 108.473 185.062 112.009 182.894 114.522C181.802 115.786 180.256 116.64 178.518 116.947C177.876 117.062 176.547 117.05 175.921 116.928C174.641 116.676 173.496 116.148 172.526 115.364C172.334 115.207 171.729 114.636 171.181 114.092C170.633 113.545 170.175 113.104 170.158 113.112C170.142 113.12 167.696 115.498 164.719 118.401L159.312 123.673L160.776 125.075C162.261 126.497 162.821 126.981 163.79 127.67C166.993 129.962 170.813 131.423 174.657 131.829C174.98 131.86 175.311 131.9 175.389 131.911C175.741 131.963 178.534 131.963 179.172 131.907C188.616 131.104 196.444 124.874 199.09 116.057C200.026 112.931 200.247 109.556 199.72 106.331C199.196 103.102 197.957 100.05 196.071 97.3329C194.832 95.5491 193.127 93.7771 191.295 92.3673C187.835 89.7053 183.565 88.0868 179.082 87.7285C178.518 87.6812 176.403 87.6576 175.941 87.6931Z" fill="url(#paint3_linear_852_45)"/>
<path d="M52.53 131.021H68.9138V87.9018H52.53V131.021Z" fill="url(#paint4_linear_852_45)"/>
<defs>
<linearGradient id="paint0_linear_852_45" x1="187.413" y1="118.418" x2="5.59498" y2="116.296" gradientUnits="userSpaceOnUse">
<stop/>
<stop offset="0.791667" stop-color="#77787A"/>
</linearGradient>
<linearGradient id="paint1_linear_852_45" x1="187.413" y1="118.418" x2="5.59498" y2="116.296" gradientUnits="userSpaceOnUse">
<stop/>
<stop offset="0.791667" stop-color="#77787A"/>
</linearGradient>
<linearGradient id="paint2_linear_852_45" x1="187.413" y1="118.418" x2="5.59498" y2="116.296" gradientUnits="userSpaceOnUse">
<stop/>
<stop offset="0.791667" stop-color="#77787A"/>
</linearGradient>
<linearGradient id="paint3_linear_852_45" x1="187.413" y1="118.418" x2="5.59498" y2="116.296" gradientUnits="userSpaceOnUse">
<stop/>
<stop offset="0.791667" stop-color="#77787A"/>
</linearGradient>
<linearGradient id="paint4_linear_852_45" x1="187.413" y1="118.418" x2="5.59498" y2="116.296" gradientUnits="userSpaceOnUse">
<stop/>
<stop offset="0.791667" stop-color="#77787A"/>
</linearGradient>
</defs>
</svg>
