<svg width="200" height="200" viewBox="0 0 200 200" fill="none" xmlns="http://www.w3.org/2000/svg">
<path fill-rule="evenodd" clip-rule="evenodd" d="M39.8294 123.999H42.6021C43.2445 123.999 43.7853 123.447 43.8192 122.792V91.9763C43.8192 88.9396 41.4189 86.4896 38.4433 86.4896H34.8931C34.2507 86.4896 33.7098 85.9375 33.7098 85.2818V82.4867C33.7098 79.45 31.3092 77 28.3338 77H5.37597C2.40059 77 0 79.45 0 82.4867V113.44C0 116.442 2.40059 118.892 5.37597 118.927H31.9854C32.222 118.927 32.4587 118.996 32.6616 119.134L39.1533 123.792C39.3562 123.93 39.5929 123.999 39.8294 123.999ZM33.3716 114.544H5.4436C4.76736 114.544 4.26022 114.027 4.26022 113.337V82.5557C4.26022 81.9001 4.80117 81.348 5.4436 81.348H28.2662C28.9086 81.348 29.4495 81.9001 29.4495 82.5557V85.2818C29.4495 85.9375 28.9086 86.4896 28.2662 86.4896H11.2591C10.6167 86.4896 10.0757 87.0417 10.0757 87.6974V108.229C10.0757 108.885 10.6167 109.437 11.2591 109.437H32.4925C33.135 109.437 33.676 108.885 33.676 108.229V92.0453C33.676 91.3897 34.2169 90.8375 34.8593 90.8375H38.3419C38.9843 90.8375 39.5253 91.3897 39.5253 92.0453V117.236C39.5253 117.857 38.849 118.202 38.3757 117.857L34.0478 114.751C33.845 114.613 33.6083 114.544 33.3716 114.544ZM28.841 105.055H14.9107C14.6064 105.055 14.336 104.813 14.336 104.468V91.4242C14.336 91.1136 14.5726 90.8375 14.9107 90.8375H28.841C29.1452 90.8375 29.4157 91.0791 29.4157 91.4242V104.468C29.4157 104.779 29.179 105.055 28.841 105.055ZM151.516 83.5615C153.291 83.5615 154.731 82.0926 154.731 80.2807C154.731 78.4688 153.291 77 151.516 77C149.74 77 148.301 78.4688 148.301 80.2807C148.301 82.0926 149.74 83.5615 151.516 83.5615ZM114.846 88.3578V86.5351H109.667V109.257H114.846V93.7345L120.887 91.1829V85.8668H120.828L114.846 88.3578ZM94.7801 86.5147C91.4168 86.5147 88.6784 87.6386 86.5947 89.9169C85.6425 90.9801 84.8982 92.1952 84.3625 93.6229C83.8567 95.0203 83.5887 96.5088 83.5887 98.058C83.5887 101.248 84.4816 103.89 86.2972 105.926C88.2913 108.174 91.0297 109.267 94.5121 109.267C97.9052 109.267 100.614 108.143 102.668 105.865C104.602 103.708 105.584 101.005 105.584 97.7238C105.584 94.4431 104.632 91.8003 102.757 89.7346C100.763 87.5779 98.1135 86.5147 94.7801 86.5147ZM98.828 102.675C97.8455 103.921 96.4767 104.559 94.7503 104.559C92.9047 104.559 91.387 103.921 90.2559 102.645C89.7203 102.068 89.3033 101.339 89.0058 100.519C88.7083 99.6983 88.5593 98.8478 88.5593 97.9365C88.5593 96.1138 89.0357 94.595 90.0178 93.3192C91.0891 91.9522 92.5479 91.2535 94.4229 91.2535C96.268 91.2535 97.7268 91.8914 98.7683 93.1976C99.7508 94.4127 100.257 95.9923 100.257 97.9668C100.286 99.8806 99.8101 101.46 98.828 102.675ZM148.892 86.5389H154.042V109.291H148.892V86.5389ZM70.318 86.5147C67.3713 86.5147 64.9602 87.3956 63.0852 89.1575C61.3289 90.8282 60.436 92.9243 60.436 95.4455C60.436 97.6935 61.2098 99.5465 62.7579 101.035C61.4185 102.129 60.7634 103.435 60.7634 104.984C60.7634 105.926 60.8825 106.746 61.0912 107.445C61.2995 108.174 61.716 108.781 62.3708 109.328C60.0493 110.634 58.9183 112.761 59.0075 115.677C59.0672 118.198 60.1385 120.203 62.2222 121.722C64.3055 123.241 67.0734 124 70.4665 124C73.8597 124 76.3898 123.332 78.1159 121.995C79.8423 120.659 80.7053 118.745 80.7053 116.224C80.7053 113.733 80.0207 111.788 78.6519 110.421C77.9076 109.692 76.9553 109.115 75.7944 108.599C74.604 108.113 72.9967 107.688 70.913 107.353C68.8297 107.019 67.3414 106.655 66.4485 106.199C66.0319 106.017 65.7639 105.804 65.6448 105.591C65.5258 105.379 65.4664 105.075 65.4664 104.68C65.4664 104.285 65.734 103.738 66.2402 103.04C67.4012 103.435 68.6807 103.647 70.05 103.647C72.8477 103.647 75.1397 102.797 76.9553 101.065C77.759 100.275 78.3839 99.3338 78.8303 98.2706C79.2768 97.2074 79.4851 96.0227 79.4851 94.7165C79.4851 93.4103 79.1876 92.1648 78.5922 91.0105C78.5922 91.0105 78.5922 90.9801 78.5623 90.9801H80.7352V86.5147H70.318ZM66.7165 111.09L67.7879 111.272C70.7939 111.728 72.9369 112.335 74.1576 113.155C75.2588 113.854 75.7944 114.796 75.7944 115.95C75.7944 118.38 74.0978 119.565 70.7047 119.565C68.7106 119.565 67.1033 119.139 65.8531 118.32C65.2876 117.955 64.8412 117.499 64.5437 116.983C64.2163 116.467 64.0673 115.889 64.0673 115.191C64.0673 114.492 64.2756 113.763 64.6926 113.003C65.1391 112.214 65.8237 111.606 66.7165 111.09ZM73.2049 98.058C72.3714 98.8174 71.3893 99.2123 70.2881 99.2123C68.7998 99.2123 67.6094 98.787 66.6867 97.9365C66.2701 97.5719 65.9722 97.1163 65.734 96.6606C65.5258 96.1746 65.4067 95.6886 65.4067 95.1722C65.4067 94.6558 65.4959 94.1393 65.7046 93.6229C66.3593 91.8914 67.8177 91.0408 70.1093 91.0408C71.4785 91.0408 72.5801 91.4054 73.3539 92.1344C74.1277 92.8635 74.5443 93.8356 74.5443 95.0203C74.5144 96.1746 74.068 97.2074 73.2049 98.058ZM176.78 91.4661C177.168 92.499 177.376 93.714 177.376 95.0203V109.206H172.316V108.143C170.798 108.842 169.399 109.206 168.119 109.206C166.512 109.206 165.172 109.054 164.041 108.751C162.91 108.447 161.958 107.991 161.184 107.414C159.607 106.199 158.803 104.468 158.803 102.22C158.803 100.215 159.755 98.5136 161.72 97.177C163.833 95.7189 166.72 94.9899 170.351 94.9899L171.185 95.0203C171.271 95.0203 171.357 95.0273 171.446 95.0346C171.542 95.0424 171.642 95.0506 171.75 95.0506C171.85 95.0652 171.943 95.0728 172.033 95.0801C172.13 95.088 172.223 95.0956 172.316 95.1114C172.197 92.8635 171.244 91.5269 169.458 91.1624C168.893 91.0408 168.238 90.9801 167.583 90.9801C166.899 90.9801 166.244 91.0408 165.619 91.1624C164.964 91.2839 164.339 91.4661 163.744 91.6484C162.434 92.0737 161.452 92.5901 160.886 93.1369L160.827 93.1065L160.202 88.4588C162.613 87.1526 165.292 86.5147 168.179 86.5147C172.673 86.5147 175.53 88.155 176.78 91.4661ZM172.316 103.83V100.913V98.9389C171.929 98.8781 171.542 98.8478 171.155 98.8478H170.322C167.286 98.8478 165.351 99.5465 164.518 100.913C164.28 101.308 164.16 101.734 164.16 102.189C164.16 102.645 164.25 103.04 164.399 103.374C164.577 103.708 164.845 104.012 165.202 104.225C165.917 104.65 166.988 104.862 168.387 104.862C169.786 104.862 171.096 104.498 172.316 103.83ZM196.399 96.5695C197.262 96.9948 197.976 97.5112 198.512 98.1187C199.494 99.2123 200 100.67 200 102.554C200 104.528 199.226 106.138 197.679 107.384C196.071 108.69 193.809 109.328 190.892 109.328C187.38 109.328 184.642 108.72 182.707 107.536V101.946C182.707 101.916 182.826 102.037 183.035 102.28C183.243 102.523 183.66 102.797 184.225 103.161C184.791 103.526 185.475 103.83 186.22 104.103C187.856 104.68 189.553 104.954 191.339 104.954C193.72 104.954 194.911 104.133 194.911 102.523C194.911 102.007 194.673 101.612 194.226 101.369C193.422 100.944 192.232 100.61 190.654 100.397C189.077 100.154 187.797 99.8502 186.785 99.4249C185.773 98.9997 184.94 98.4832 184.315 97.9061C183.154 96.7821 182.558 95.324 182.558 93.5318C182.558 91.3446 183.392 89.6131 185.029 88.3677C186.666 87.1222 188.928 86.5147 191.815 86.5147C194.673 86.5147 197.113 87.3349 199.137 89.0056V89.006C199.048 89.3703 198.959 89.7348 198.839 90.0688C198.512 91.0105 198.274 91.6788 198.125 92.0737L197.649 93.3192C197.619 93.4407 197.589 93.5014 197.589 93.5014C197.559 93.5014 197.44 93.3495 197.262 93.0457C196.399 92.0129 195.03 91.3446 193.214 91.0105C192.649 90.889 192.083 90.8282 191.488 90.8282C188.987 90.8282 187.737 91.5877 187.737 93.1369C187.737 93.6533 187.975 94.0786 188.511 94.352C189.494 94.8987 190.833 95.2936 192.53 95.5367C194.226 95.8101 195.506 96.1442 196.399 96.5695ZM133.742 86.5147C130.795 86.5147 128.385 87.3956 126.509 89.1575C124.753 90.8282 123.86 92.9243 123.86 95.4455C123.86 97.6935 124.634 99.5465 126.182 101.035C124.843 102.129 124.188 103.435 124.188 104.984C124.188 105.926 124.307 106.746 124.515 107.445C124.723 108.174 125.14 108.781 125.795 109.328C123.473 110.634 122.342 112.761 122.432 115.677C122.491 118.198 123.563 120.203 125.646 121.722C127.73 123.241 130.498 124 133.891 124C137.284 124 139.814 123.332 141.54 121.995C143.266 120.659 144.13 118.745 144.13 116.224C144.13 113.733 143.445 111.788 142.076 110.421C141.332 109.692 140.379 109.115 139.218 108.599C138.028 108.113 136.421 107.688 134.337 107.353C132.254 107.019 130.765 106.655 129.873 106.199C129.456 106.017 129.188 105.804 129.069 105.591C128.95 105.379 128.89 105.075 128.89 104.68C128.89 104.285 129.158 103.738 129.664 103.04C130.825 103.435 132.105 103.647 133.474 103.647C136.272 103.647 138.564 102.797 140.379 101.065C141.183 100.275 141.808 99.3338 142.254 98.2706C142.701 97.2074 142.909 96.0227 142.909 94.7165C142.909 93.4103 142.612 92.1648 142.017 91.0105C142.017 91.0105 142.017 90.9801 141.987 90.9801H144.16V86.5147H133.742ZM130.141 111.09L131.212 111.272C134.218 111.728 136.361 112.335 137.582 113.155C138.683 113.854 139.218 114.796 139.218 115.95C139.218 118.38 137.522 119.565 134.129 119.565C132.135 119.565 130.528 119.139 129.278 118.32C128.712 117.955 128.266 117.499 127.968 116.983C127.64 116.467 127.492 115.889 127.492 115.191C127.492 114.492 127.7 113.763 128.117 113.003C128.563 112.214 129.248 111.606 130.141 111.09ZM136.629 98.058C135.796 98.8174 134.813 99.2123 133.712 99.2123C132.224 99.2123 131.033 98.787 130.111 97.9365C129.694 97.5719 129.397 97.1163 129.158 96.6606C128.95 96.1746 128.831 95.6886 128.831 95.1722C128.831 94.6558 128.92 94.1393 129.129 93.6229C129.783 91.8914 131.242 91.0408 133.534 91.0408C134.903 91.0408 136.004 91.4054 136.778 92.1344C137.552 92.8635 137.968 93.8356 137.968 95.0203C137.939 96.1746 137.492 97.2074 136.629 98.058Z" fill="black"/>
</svg>
