<svg width="200" height="200" viewBox="0 0 200 200" fill="none" xmlns="http://www.w3.org/2000/svg">
<g clip-path="url(#clip0_852_400)">
<path d="M1.39445 97.8422L31.9953 77.575C33.3287 76.8083 34.962 76.8083 36.2954 77.575L66.8962 97.8422C68.0963 98.4422 68.6296 99.8756 68.0296 101.109C67.7963 101.609 67.3962 102.009 66.8962 102.242L62.7961 104.942C52.7625 89.1087 31.8286 84.4085 15.9948 94.4088C11.7614 97.1089 8.1613 100.676 5.46123 104.942L1.32778 102.242C0.127747 101.609 -0.338932 100.142 0.261085 98.9423C0.527759 98.4756 0.927769 98.0756 1.39445 97.8422ZM34.0953 97.6089C25.3284 97.6422 17.1615 102.142 12.4948 109.576L19.5283 114.243C24.3617 106.209 34.7954 103.642 42.7956 108.476C45.1623 109.909 47.129 111.876 48.5624 114.243L55.5959 109.576C50.9958 102.109 42.8622 97.5756 34.0953 97.6089ZM34.0953 114.543C30.9953 114.576 28.1618 116.243 26.6285 118.943L31.3619 122.043C32.1286 122.71 33.0953 123.043 34.0953 123.043C35.0954 123.043 36.0954 122.676 36.8288 122.043L41.5622 118.943C40.0622 116.209 37.1954 114.543 34.0953 114.543Z" fill="black"/>
<path d="M87.2304 99.909L94.8973 110.909H89.4971L83.697 102.376V110.909H79.2969V89.1087H83.697V97.8089L89.1971 89.1087H94.2639L87.2304 99.909ZM102.464 89.1753H98.064V110.976H109.298V106.576H102.364L102.464 89.1753ZM122.298 88.3753L131.465 110.943H126.531L125.665 108.576H118.431L117.565 110.943H112.598L121.765 88.3753H122.298ZM124.065 104.509L122.098 98.8756L120.065 104.509H124.065ZM137.632 101.276L133.132 89.1753H128.198L137.365 111.743H137.798L146.965 89.1753H141.999L137.632 101.276ZM150.332 110.976H154.732V89.1753H150.332V110.976ZM172.133 89.1753L167.699 96.7089L163.266 89.1753H157.966L165.533 101.142V110.976H169.866V101.142L177.5 89.1753H172.133ZM200 99.6756C200 105.909 194.933 110.976 188.7 110.976C182.466 110.976 177.4 105.909 177.4 99.6756C177.4 93.4421 182.466 88.3753 188.7 88.3753C194.967 88.4086 200 93.4421 200 99.6756ZM195.767 99.6756C195.767 95.7755 192.6 92.6421 188.733 92.6421C184.833 92.6421 181.7 95.8088 181.7 99.6756C181.7 103.542 184.866 106.709 188.733 106.709C192.6 106.709 195.767 103.576 195.767 99.7089C195.767 99.7089 195.767 99.7089 195.767 99.6756Z" fill="black"/>
</g>
<defs>
<clipPath id="clip0_852_400">
<rect width="200" height="200" fill="white"/>
</clipPath>
</defs>
</svg>
