<svg width="200" height="200" viewBox="0 0 200 200" fill="none" xmlns="http://www.w3.org/2000/svg">
<path d="M1.39445 97.871L31.9953 77.6038C33.3287 76.8371 34.962 76.8371 36.2954 77.6038L66.8962 97.871C68.0963 98.4711 68.6296 99.9044 68.0296 101.138C67.7963 101.638 67.3962 102.038 66.8962 102.271L62.7961 104.971C52.7625 89.1375 31.8286 84.4373 15.9948 94.4376C11.7614 97.1377 8.1613 100.704 5.46123 104.971L1.32778 102.271C0.127747 101.638 -0.338932 100.171 0.261085 98.9711C0.527759 98.5044 0.927769 98.1044 1.39445 97.871ZM34.0953 97.6377C25.3284 97.671 17.1615 102.171 12.4948 109.605L19.5283 114.271C24.3617 106.238 34.7954 103.671 42.7956 108.505C45.1623 109.938 47.129 111.905 48.5624 114.271L55.5959 109.605C50.9958 102.138 42.8622 97.6044 34.0953 97.6377ZM34.0953 114.571C30.9953 114.605 28.1618 116.272 26.6285 118.972L31.3619 122.072C32.1286 122.738 33.0953 123.072 34.0953 123.072C35.0954 123.072 36.0954 122.705 36.8287 122.072L41.5622 118.972C40.0622 116.238 37.1954 114.571 34.0953 114.571Z" fill="url(#paint0_linear_852_424)"/>
<path d="M87.2304 99.9378L94.8973 110.938H89.4971L83.697 102.404V110.938H79.2969V89.1375H83.697V97.8377L89.1971 89.1375H94.2639L87.2304 99.9378ZM102.464 89.2041H98.064V111.005H109.298V106.605H102.364L102.464 89.2041ZM122.298 88.4041L131.465 110.971H126.531L125.665 108.605H118.431L117.565 110.971H112.598L121.765 88.4041H122.298ZM124.065 104.538L122.098 98.9044L120.065 104.538H124.065ZM137.632 101.304L133.132 89.2041H128.198L137.365 111.771H137.798L146.965 89.2041H141.999L137.632 101.304ZM150.332 111.005H154.732V89.2041H150.332V111.005ZM172.133 89.2041L167.699 96.7377L163.266 89.2041H157.966L165.533 101.171V111.005H169.866V101.171L177.5 89.2041H172.133ZM200 99.7044C200 105.938 194.933 111.005 188.7 111.005C182.466 111.005 177.4 105.938 177.4 99.7044C177.4 93.4709 182.466 88.4041 188.7 88.4041C194.967 88.4374 200 93.4709 200 99.7044ZM195.767 99.7044C195.767 95.8043 192.6 92.6709 188.733 92.6709C184.833 92.6709 181.7 95.8376 181.7 99.7044C181.7 103.571 184.866 106.738 188.733 106.738C192.6 106.738 195.767 103.605 195.767 99.7378C195.767 99.7378 195.767 99.7378 195.767 99.7044Z" fill="black"/>
<defs>
<linearGradient id="paint0_linear_852_424" x1="34.1233" y1="123.06" x2="34.1233" y2="77.0343" gradientUnits="userSpaceOnUse">
<stop stop-color="#EFC119"/>
<stop offset="0.3314" stop-color="#92C84E"/>
<stop offset="0.4859" stop-color="#71BF5B"/>
<stop offset="0.7506" stop-color="#15B158"/>
<stop offset="0.903" stop-color="#23AC69"/>
<stop offset="1" stop-color="#23AC69"/>
</linearGradient>
</defs>
</svg>
