<svg width="200" height="200" viewBox="0 0 200 200" fill="none" xmlns="http://www.w3.org/2000/svg">
<path d="M31.0708 105.555C29.3035 107.224 26.6522 107.715 24.4919 106.537C22.7246 105.555 21.4485 103.591 21.4485 101.53C21.4485 100.056 21.9385 98.6822 22.7246 97.4049C23.6077 95.8337 24.5899 94.4595 25.474 92.8883C26.2602 91.3171 26.9472 89.6479 27.1432 87.9786C27.5363 84.9353 26.6522 81.9888 25.376 79.2394C24.8849 78.2572 24.2959 77.1771 23.7068 76.1949C23.3137 75.6059 22.9206 74.9188 22.5275 74.3297C22.1356 73.8386 21.7425 73.1516 21.0554 73.1516C20.7603 73.1516 20.5643 73.2496 20.3672 73.3476C20.0732 73.5446 19.8773 73.9366 19.8773 74.4277C19.8773 75.0168 19.9753 75.5079 19.9753 76.0969C19.9753 76.588 19.9753 77.1771 19.8773 77.6682C19.7782 78.7483 19.4842 79.8285 19.1891 80.8106C18.8951 81.7917 18.404 82.8719 17.9129 83.756C17.5199 84.5422 17.0288 85.2292 16.4397 85.9163C13.8874 89.0588 10.3519 91.022 7.60249 93.8705C3.37987 98.1911 1.31757 104.671 2.20172 110.759C2.29972 111.545 2.49681 112.331 2.6928 113.018C5.83526 114.883 9.4688 116.062 13.3963 116.062C22.4295 116.062 30.5797 110.367 33.4282 102.021C32.8391 103.396 32.0529 104.671 31.0708 105.555Z" fill="#E88323"/>
<g opacity="0.199997">
<g opacity="0.199997">
<g opacity="0.199997">
<g opacity="0.199997">
<g opacity="0.199997">
<g opacity="0.199997">
<path opacity="0.199997" d="M31.0697 105.553C29.3025 107.222 26.6511 107.713 24.4908 106.535C22.7235 105.553 21.4474 103.589 21.4474 101.528C21.4474 100.054 21.9385 98.6791 22.7235 97.403C23.6077 95.8317 24.5899 94.4565 25.4729 92.8864C26.2591 91.3151 26.9462 89.6459 27.1422 87.9767C27.5352 84.9322 26.6511 81.9868 25.3749 79.2375C24.8839 78.2553 24.2948 77.1751 23.7057 76.193C23.3126 75.6039 22.9195 74.9168 22.5275 74.3278C22.1345 73.8367 21.7414 73.1496 21.0543 73.1496C20.7603 73.1496 20.5632 73.2465 20.3672 73.3456C20.0722 73.5416 19.8762 73.9347 19.8762 74.4258C19.8762 75.0148 19.9742 75.5059 19.9742 76.095C19.9742 76.5861 19.9742 77.1751 19.8762 77.6662C19.7782 78.7464 19.4831 79.8265 19.1891 80.8087C18.894 81.7898 18.404 82.8699 17.9119 83.7541C17.5199 84.5402 17.0288 85.2273 16.4397 85.9144C13.8863 89.0557 10.3519 91.0201 7.60249 93.8674C3.37987 98.1891 1.31757 104.669 2.20172 110.757C2.29972 111.543 2.49572 112.329 2.69171 113.015C5.83417 114.881 9.46771 116.06 13.3952 116.06C22.4296 116.06 30.5797 110.365 33.4271 102.019C32.838 103.393 32.0518 104.669 31.0697 105.553" fill="url(#paint0_linear_852_201)"/>
</g>
</g>
</g>
</g>
</g>
</g>
<path d="M63.9699 105.261C63.9699 101.726 62.2016 99.4678 59.3542 99.4678C56.4088 99.4678 54.6416 101.726 54.6416 105.261C54.6416 108.796 56.4088 111.053 59.3542 111.053C62.2016 111.152 63.9699 108.796 63.9699 105.261ZM49.6328 105.261C49.6328 99.6638 53.9534 95.5392 59.3542 95.5392C64.657 95.5392 68.9776 99.5658 68.9776 105.261C68.9776 110.858 64.657 114.982 59.3542 114.982C53.9534 114.982 49.6328 110.955 49.6328 105.261Z" fill="black"/>
<path d="M71.2324 105.261C71.2324 99.2707 75.749 95.5392 80.9538 95.5392C83.4081 95.5392 85.8635 96.2273 87.3367 97.4055V101.726C85.8635 100.449 83.9972 99.5658 81.7389 99.5658C78.6955 99.5658 76.3381 101.529 76.3381 105.261C76.3381 108.992 78.6955 110.955 81.7389 110.955C83.8992 110.955 85.8635 110.072 87.3367 108.796V113.117C85.8635 114.295 83.4081 114.982 80.9538 114.982C75.749 114.982 71.2324 111.348 71.2324 105.261Z" fill="black"/>
<path d="M95.5815 100.056H89.8867V96.4229H105.991V100.056H100.295V114.195H95.5815V100.056Z" fill="black"/>
<path d="M117.283 107.321L115.122 101.725L112.962 107.321H117.283ZM113.06 96.4219H117.185L124.844 114.194H119.934L118.363 110.366H111.685L110.213 114.194H105.5L113.06 96.4219Z" fill="black"/>
<path d="M128.088 96.4229H131.72L139.87 106.635V96.4229H144.191V114.195H140.558L132.309 103.984V114.195H128.088V96.4229Z" fill="black"/>
<path d="M149.1 96.4229H161.962V100.056H154.107V103.002H160.392V106.635H154.107V110.563H161.962V114.195H149.1V96.4229Z" fill="black"/>
<path d="M183.466 107.321L181.306 101.725L179.144 107.321H183.466ZM179.242 96.4219H183.366L191.026 114.194H186.118L184.545 110.366H177.867L176.396 114.194H171.684L179.242 96.4219Z" fill="black"/>
<path d="M197.999 96.4224H193.188V114.195H197.999V96.4224Z" fill="black"/>
<path d="M41.1838 104.671C40.9878 103.198 40.5948 101.627 40.0057 100.253C39.6126 99.2705 39.1215 98.3874 38.6305 97.5032C38.2374 96.9131 37.8454 96.4231 37.4523 95.834C37.0592 95.4409 36.7652 94.7539 36.0782 94.7539C35.39 94.7539 34.998 95.3429 34.9 95.932C34.6049 97.7983 34.3109 99.7615 33.6228 101.529C30.6774 109.777 22.7232 115.571 13.3949 115.571C9.46741 115.571 5.83387 114.589 2.69141 112.723C2.88849 113.508 3.18248 114.196 3.47757 114.982C5.24479 119.105 8.38726 122.543 12.3148 124.702C18.8937 128.239 27.4369 127.65 33.4268 123.23C35.39 121.855 37.0592 119.989 38.3365 118.026C39.6126 116.062 40.4968 113.804 40.9878 111.544C41.4789 109.384 41.5769 106.93 41.1838 104.671Z" fill="#F8981D"/>
<g opacity="0.399994">
<g opacity="0.399994">
<g opacity="0.399994">
<g opacity="0.399994">
<g opacity="0.399994">
<g opacity="0.399994">
<path opacity="0.399994" d="M41.1769 104.672C40.9809 103.199 40.5878 101.627 39.9987 100.253C39.6067 99.2708 39.1157 98.3877 38.6246 97.5035C38.2315 96.9145 37.8395 96.4234 37.4464 95.8343C37.0534 95.4412 36.7583 94.7542 36.0712 94.7542C35.3841 94.7542 34.9911 95.3432 34.8931 95.9323C34.598 97.7986 34.304 99.7618 33.6169 101.53C30.6704 109.778 22.7174 115.571 13.388 115.571C9.46046 115.571 5.82801 114.59 2.68555 112.724C2.88154 113.51 3.17663 114.196 3.47062 114.982C5.23893 119.106 8.38031 122.543 12.3089 124.703C18.8878 128.239 27.43 127.65 33.4198 123.23C35.3841 121.856 37.0534 119.991 38.3295 118.026C39.6068 116.062 40.4898 113.804 40.9809 111.546C41.472 109.384 41.57 106.931 41.1769 104.672" fill="url(#paint1_linear_852_201)"/>
</g>
</g>
</g>
</g>
</g>
</g>
<defs>
<linearGradient id="paint0_linear_852_201" x1="17.7133" y1="73.1491" x2="17.7133" y2="116.06" gradientUnits="userSpaceOnUse">
<stop stop-color="white"/>
<stop offset="1" stop-color="white"/>
</linearGradient>
<linearGradient id="paint1_linear_852_201" x1="22.0526" y1="94.7541" x2="22.0526" y2="127" gradientUnits="userSpaceOnUse">
<stop stop-color="white"/>
<stop offset="1" stop-color="white"/>
</linearGradient>
</defs>
</svg>
