<svg width="200" height="200" viewBox="0 0 200 200" fill="none" xmlns="http://www.w3.org/2000/svg">
<g clip-path="url(#clip0_852_153)">
<path fill-rule="evenodd" clip-rule="evenodd" d="M29.6641 106.066C27.8604 107.769 25.1552 108.27 22.9508 107.067C21.1472 106.066 19.8446 104.062 19.8446 101.957C19.8446 100.454 20.3456 99.0516 21.1472 97.7491C22.0489 96.1459 23.051 94.7432 23.9528 93.14C24.7544 91.5368 25.4558 89.8334 25.6561 88.13C26.0569 85.0238 25.1552 82.0179 23.8526 79.2123C23.3516 78.2103 22.7504 77.1081 22.1492 76.1062C21.7484 75.505 21.3476 74.8036 20.9468 74.2024C20.546 73.7014 20.1452 73 19.4438 73C19.1432 73 18.9428 73.1002 18.7424 73.2004C18.4419 73.4008 18.2414 73.8016 18.2414 74.3026C18.2414 74.9038 18.3416 75.4048 18.3416 76.006C18.3416 76.507 18.3416 77.1081 18.2414 77.6091C18.1412 78.7113 17.8406 79.8135 17.5401 80.8155C17.2395 81.8175 16.7385 82.9197 16.2374 83.8215C15.8367 84.623 15.3357 85.3244 14.7345 86.0258C12.1293 89.2321 8.52218 91.2361 5.71661 94.1419C1.40807 98.5507 -0.696096 105.164 0.205693 111.376C0.305891 112.178 0.506287 112.979 0.706685 113.681C3.91303 115.584 7.62039 116.787 11.6283 116.787C20.8467 116.787 29.1631 110.975 32.0689 102.458C31.4676 103.861 30.666 105.164 29.6641 106.066Z" fill="black"/>
<path style="mix-blend-mode:overlay" fill-rule="evenodd" clip-rule="evenodd" d="M29.6641 106.066C27.8604 107.769x 25.1552 108.27 22.9508 107.067C21.1472 106.066 19.8446 104.062 19.8446 101.957C19.8446 100.454 20.3456 99.0516 21.1472 97.7491C22.0489 96.1459 23.051 94.7432 23.9528 93.14C24.7544 91.5368 25.4558 89.8334 25.6561 88.13C26.0569 85.0238 25.1552 82.0179 23.8526 79.2123C23.3516 78.2103 22.7504 77.1081 22.1492 76.1062C21.7484 75.505 21.3476 74.8036 20.9468 74.2024C20.546 73.7014 20.1452 73 19.4438 73C19.1432 73 18.9428 73.1002 18.7424 73.2004C18.4419 73.4008 18.2414 73.8016 18.2414 74.3026C18.2414 74.9038 18.3416 75.4048 18.3416 76.006C18.3416 76.507 18.3416 77.1081 18.2414 77.6091C18.1412 78.7113 17.8406 79.8135 17.5401 80.8155C17.2395 81.8175 16.7385 82.9197 16.2374 83.8215C15.8367 84.623 15.3357 85.3244 14.7345 86.0258C12.1293 89.2321 8.52218 91.2361 5.71661 94.1419C1.40807 98.5507 -0.696096 105.164 0.205693 111.376C0.305891 112.178 0.506287 112.979 0.706685 113.681C3.91303 115.584 7.62039 116.787 11.6283 116.787C20.8467 116.787 29.1631 110.975 32.0689 102.458C31.4676 103.861 30.666 105.164 29.6641 106.066Z" fill="#CECBCB" fill-opacity="0.2"/>
<path fill-rule="evenodd" clip-rule="evenodd" d="M48.6035 105.765C48.6035 100.054 53.0121 95.8452 58.5232 95.8452C63.9339 95.8452 68.3425 99.9534 68.3425 105.765C68.3425 111.476 63.9339 115.685 58.5232 115.685C53.0121 115.685 48.6035 111.576 48.6035 105.765ZM63.2324 105.765C63.2324 102.158 61.4289 99.8532 58.5232 99.8532C55.5171 99.8532 53.7136 102.158 53.7136 105.765C53.7136 109.372 55.5171 111.677 58.5232 111.677C61.4289 111.777 63.2324 109.372 63.2324 105.765Z" fill="black"/>
<path fill-rule="evenodd" clip-rule="evenodd" d="M70.6445 105.765C70.6445 99.6527 75.2536 95.8452 80.5642 95.8452C83.0691 95.8452 85.5741 96.5467 87.0771 97.7491V102.158C85.5741 100.855 83.6703 99.9534 81.3658 99.9534C78.2595 99.9534 75.8548 101.957 75.8548 105.765C75.8548 109.572 78.2595 111.576 81.3658 111.576C83.5701 111.576 85.5741 110.675 87.0771 109.372V113.781C85.5741 114.983 83.0691 115.685 80.5642 115.685C75.2536 115.685 70.6445 111.977 70.6445 105.765Z" fill="black"/>
<path fill-rule="evenodd" clip-rule="evenodd" d="M95.4951 100.454H89.6836V96.7471H106.116V100.454H100.305V114.883H95.4951V100.454Z" fill="black"/>
<path fill-rule="evenodd" clip-rule="evenodd" d="M113.329 96.7471H117.537L125.352 114.883H120.343L118.739 110.975H111.926L110.423 114.883H105.613L113.329 96.7471ZM117.637 107.869L115.433 102.158L113.228 107.869H117.637Z" fill="black"/>
<path fill-rule="evenodd" clip-rule="evenodd" d="M128.66 96.7471H132.368L140.684 107.168V96.7471H145.093V114.883H141.385L132.969 104.462V114.883H128.66V96.7471Z" fill="black"/>
<path fill-rule="evenodd" clip-rule="evenodd" d="M150.104 96.7471H163.23V100.454H155.214V103.46H161.627V107.168H155.214V111.176H163.23V114.883H150.104V96.7471Z" fill="black"/>
<path fill-rule="evenodd" clip-rule="evenodd" d="M180.861 96.7471H185.069L192.885 114.883H187.875L186.272 110.975H179.458L177.956 114.883H173.146L180.861 96.7471ZM185.17 107.869L182.966 102.158L180.761 107.869H185.17Z" fill="black"/>
<path d="M200.001 96.7471H195.092V114.883H200.001V96.7471Z" fill="black"/>
<path fill-rule="evenodd" clip-rule="evenodd" d="M39.983 105.164C39.7825 103.661 39.3817 102.057 38.7806 100.655C38.3798 99.6527 37.8788 98.7508 37.3777 97.8491C36.9769 97.2479 36.5761 96.7468 36.1755 96.1457C35.7747 95.7449 35.474 95.0435 34.7726 95.0435C34.0711 95.0435 33.6703 95.6447 33.5702 96.2459C33.2697 98.1497 32.9691 100.154 32.2676 101.957C29.2617 110.374 21.1456 116.286 11.6267 116.286C7.61878 116.286 3.91144 115.284 0.705078 113.38C0.905476 114.181 1.20607 114.883 1.50667 115.684C3.31024 119.893 6.5166 123.4 10.5245 125.604C17.2379 129.211 25.9552 128.61 32.0673 124.101C34.0711 122.698 35.7747 120.795 37.0772 118.791C38.3798 116.787 39.2815 114.482 39.7825 112.178C40.2834 109.973 40.3838 107.468 39.983 105.164Z" fill="#6A6866"/>
<path style="mix-blend-mode:overlay" fill-rule="evenodd" clip-rule="evenodd" d="M39.983 105.164C39.7825 103.661 39.3817 102.057 38.7806 100.655C38.3798 99.6527 37.8788 98.7508 37.3777 97.8491C36.9769 97.2479 36.5761 96.7468 36.1755 96.1457C35.7747 95.7449 35.474 95.0435 34.7726 95.0435C34.0711 95.0435 33.6703 95.6447 33.5702 96.2459C33.2697 98.1497 32.9691 100.154 32.2676 101.957C29.2617 110.374 21.1456 116.286 11.6267 116.286C7.61878 116.286 3.91144 115.284 0.705078 113.38C0.905476 114.181 1.20607 114.883 1.50667 115.684C3.31024 119.893 6.5166 123.4 10.5245 125.604C17.2379 129.211 25.9552 128.61 32.0673 124.101C34.0711 122.698 35.7747 120.795 37.0772 118.791C38.3798 116.787 39.2815 114.482 39.7825 112.178C40.2834 109.973 40.3838 107.468 39.983 105.164Z" fill="url(#paint0_linear_852_153)" fill-opacity="0.4"/>
</g>
<defs>
<linearGradient id="paint0_linear_852_153" x1="20.4677" y1="95.0435" x2="20.4677" y2="127.947" gradientUnits="userSpaceOnUse">
<stop stop-color="white"/>
<stop offset="1" stop-color="white" stop-opacity="0"/>
</linearGradient>
<clipPath id="clip0_852_153">
<rect width="200" height="200" fill="white"/>
</clipPath>
</defs>
</svg>
