<svg width="200" height="200" viewBox="0 0 200 200" fill="none" xmlns="http://www.w3.org/2000/svg">
<path fill-rule="evenodd" clip-rule="evenodd" d="M38.0586 113.341H25.3075C24.8233 113.341 24.3714 113.639 24.2273 114.098C23.9852 114.868 24.5539 115.576 25.2864 115.576H38.035C38.5192 115.576 38.9737 115.281 39.1177 114.818C39.3586 114.048 38.7911 113.341 38.0586 113.341ZM42.1583 94.3221H45.8583C46.8888 94.3221 47.7231 93.4853 47.7231 92.4535C47.7231 91.4205 46.8888 90.5849 45.8583 90.5849H42.1583C41.1278 90.5849 40.2922 91.4205 40.2922 92.4535C40.2922 93.484 41.1278 94.3221 42.1583 94.3221ZM45.8583 105.256H30.5247C29.4941 105.256 28.6598 106.091 28.6598 107.124C28.6598 108.157 29.4941 108.993 30.5247 108.993H45.8583C46.8888 108.993 47.7244 108.157 47.7244 107.124C47.7244 106.091 46.8888 105.256 45.8583 105.256ZM18.6688 97.7315C17.5352 97.7315 16.6152 98.6528 16.6152 99.7888C16.6152 100.925 17.5339 101.846 18.6688 101.846H24.3552C25.4888 101.846 26.4076 100.925 26.4076 99.7888C26.4076 98.6528 25.4888 97.7315 24.3527 97.7315H18.6663H18.6688ZM48.4768 97.7315H42.3458C41.2122 97.7315 40.2922 98.6528 40.2922 99.7888C40.2922 100.925 41.211 101.846 42.3458 101.846H48.4768C49.6103 101.846 50.5303 100.925 50.5303 99.7888C50.5303 98.6528 49.6116 97.7315 48.4768 97.7315V97.7315ZM24.534 94.3221H36.1863C37.2168 94.3221 38.0512 93.4853 38.0512 92.4535C38.0512 91.4205 37.2156 90.5849 36.1863 90.5849H11.8661C10.8356 90.5849 10.0012 91.4205 10.0012 92.4535C10.0012 93.484 10.8368 94.3221 11.8661 94.3221H24.534ZM26.4088 107.124C26.4088 106.091 25.572 105.256 24.5427 105.256H11.8661C10.8356 105.256 10 106.091 10 107.124C10 108.157 10.8356 108.993 11.8661 108.993H24.5427C25.5732 108.993 26.4076 108.157 26.4076 107.124H26.4088ZM42.753 113.359C41.9646 113.208 41.2855 113.888 41.437 114.679C41.5189 115.117 41.8777 115.477 42.3148 115.561C43.1057 115.71 43.7848 115.029 43.6346 114.24C43.5514 113.799 43.1926 113.44 42.753 113.358V113.359ZM26.4051 86.2406H39.1537C39.6379 86.2406 40.0911 85.9426 40.2364 85.4808C40.4772 84.711 39.9086 84.0033 39.176 84.0033H26.4274C25.9432 84.0033 25.4888 84.2988 25.3448 84.7606C25.1039 85.5304 25.6725 86.2406 26.4051 86.2406ZM21.7094 86.2232C22.4978 86.3722 23.177 85.6918 23.0255 84.9022C22.9435 84.4627 22.586 84.1038 22.1477 84.0207C21.3593 83.8717 20.6801 84.5508 20.8291 85.3417C20.9123 85.78 21.2711 86.14 21.7106 86.2232" fill="#00EBB6"/>
<path fill-rule="evenodd" clip-rule="evenodd" d="M79.7536 99.8301C79.7536 101.141 79.4904 102.334 78.9714 103.379C78.4536 104.415 77.6925 105.245 76.708 105.849C75.7221 106.449 74.5439 106.756 73.2067 106.756C71.8484 106.756 70.6664 106.45 69.6893 105.849C68.7134 105.245 67.956 104.414 67.442 103.379C66.9205 102.336 66.6561 101.144 66.6561 99.8313C66.6561 98.519 66.9205 97.3258 67.4408 96.2829C67.956 95.2474 68.7121 94.4168 69.688 93.8146C70.6639 93.2137 71.8459 92.9082 73.2042 92.9082C74.5426 92.9082 75.7221 93.2137 76.7055 93.8146C77.6901 94.4168 78.4511 95.2474 78.9689 96.2829C79.4904 97.3258 79.7511 98.5202 79.7511 99.8313L79.7536 99.8301ZM78.0327 91.5797C76.6608 90.7752 75.0368 90.3667 73.2054 90.3667C71.3741 90.3667 69.7464 90.7764 68.3657 91.581C66.9826 92.388 65.9012 93.5178 65.15 94.937C64.3976 96.3524 64.0016 97.9987 63.9668 99.8363C64.004 101.666 64.3989 103.313 65.15 104.728C65.9024 106.149 66.9851 107.278 68.3657 108.083C69.7476 108.89 71.3766 109.297 73.2079 109.297C75.0368 109.297 76.6595 108.887 78.0327 108.08C79.4047 107.277 80.4873 106.144 81.2484 104.713C82.0058 103.29 82.4081 101.649 82.4441 99.8288C82.4068 98.0161 82.0058 96.3747 81.2484 94.9494C80.4873 93.5216 79.4047 92.388 78.0327 91.5822V91.5797ZM95.8867 98.4705L101.747 92.6227C101.968 92.4017 102.08 92.0913 102.08 91.7014C102.08 91.3587 101.953 91.0682 101.702 90.8385C101.454 90.6113 101.161 90.4971 100.826 90.4971C100.431 90.4971 100.093 90.656 99.8251 90.9627L91.2792 99.6736V91.8554C91.2792 91.4829 91.1426 91.1601 90.8819 90.8944C90.6162 90.6299 90.2922 90.4971 89.9209 90.4971C89.5484 90.4971 89.2256 90.6312 88.9711 90.8969C88.7178 91.1626 88.5887 91.4854 88.5887 91.8566V107.831C88.5887 108.203 88.7191 108.522 88.9736 108.779C89.2318 109.035 89.5509 109.164 89.9222 109.164C90.2922 109.164 90.6137 109.036 90.8782 108.779C91.1451 108.525 91.2792 108.205 91.2792 107.831V103.061L94.0393 100.267L100.582 108.629C100.839 108.983 101.198 109.163 101.65 109.163C102.023 109.163 102.341 109.034 102.598 108.778C102.855 108.517 102.976 108.207 102.958 107.849C102.958 107.555 102.85 107.268 102.637 106.998L95.883 98.4705H95.8867ZM120.177 93.1652C120.531 93.1652 120.835 93.046 121.084 92.8077C121.332 92.568 121.458 92.2663 121.458 91.9087C121.458 91.5524 121.334 91.2457 121.086 90.9987C120.838 90.7503 120.533 90.6262 120.177 90.6262H109.817C109.445 90.6262 109.125 90.7603 108.866 91.0272C108.613 91.2917 108.484 91.6145 108.484 91.9857V107.698C108.484 108.073 108.613 108.393 108.869 108.649C109.127 108.905 109.445 109.034 109.816 109.034H120.176C120.53 109.034 120.834 108.915 121.082 108.676C121.331 108.437 121.457 108.135 121.457 107.777C121.457 107.422 121.333 107.116 121.085 106.869C120.839 106.62 120.532 106.494 120.176 106.494H111.174V101.088H119.245C119.6 101.088 119.905 100.967 120.151 100.728C120.402 100.489 120.527 100.186 120.527 99.8301C120.527 99.475 120.403 99.1695 120.155 98.92C119.906 98.6717 119.601 98.5475 119.246 98.5475H111.173V93.164H120.175L120.177 93.1652ZM142.269 90.4958C141.896 90.4958 141.576 90.6324 141.319 90.8969C141.066 91.1626 140.934 91.4854 140.934 91.8566V105.291L131.294 91.3401C130.866 90.7814 130.342 90.4958 129.739 90.4958H129.403C128.894 90.4958 128.451 90.6845 128.092 91.0545C127.735 91.422 127.553 91.8665 127.553 92.3756V107.831C127.553 108.203 127.683 108.522 127.938 108.779C128.197 109.035 128.514 109.164 128.886 109.164C129.256 109.164 129.578 109.036 129.844 108.779C130.109 108.525 130.241 108.205 130.241 107.831V94.3683L139.938 108.398C140.106 108.622 140.323 108.808 140.586 108.951C140.853 109.091 141.14 109.162 141.443 109.162H141.753C142.262 109.162 142.706 108.981 143.072 108.623C143.441 108.263 143.627 107.821 143.627 107.309V91.8554C143.627 91.4829 143.494 91.1601 143.23 90.8944C142.965 90.6299 142.642 90.4971 142.27 90.4971L142.269 90.4958ZM164.037 99.8301C164.037 101.139 163.748 102.308 163.181 103.307C162.612 104.3 161.8 105.088 160.765 105.647C159.728 106.209 158.505 106.494 157.127 106.494H153.576V93.1652H157.127C158.501 93.1652 159.725 93.4508 160.765 94.012C161.8 94.5732 162.615 95.3616 163.179 96.3549C163.747 97.3519 164.036 98.5214 164.036 99.8313L164.037 99.8301ZM162.499 91.9597C161.109 91.0732 159.395 90.6249 157.409 90.6249H152.215C151.843 90.6249 151.52 90.759 151.264 91.026C151.009 91.2904 150.882 91.6133 150.882 91.9845V107.698C150.882 108.073 151.011 108.393 151.266 108.649C151.523 108.905 151.843 109.034 152.214 109.034H157.406C159.393 109.034 161.106 108.587 162.497 107.7C163.885 106.819 164.943 105.659 165.645 104.256C166.343 102.857 166.697 101.367 166.697 99.8301C166.697 98.293 166.343 96.8043 165.645 95.4051C164.945 94.0021 163.886 92.8424 162.497 91.9572L162.499 91.9597ZM180.997 106.754C179.644 106.754 178.461 106.449 177.484 105.848C176.508 105.245 175.751 104.414 175.234 103.377C174.715 102.337 174.452 101.142 174.452 99.8301C174.452 98.5177 174.715 97.3246 175.234 96.2816C175.752 95.2449 176.508 94.4155 177.484 93.8133C178.46 93.2124 179.644 92.907 180.997 92.907C182.338 92.907 183.518 93.2124 184.502 93.8133C185.486 94.4155 186.247 95.2449 186.765 96.2804C187.284 97.3233 187.547 98.5177 187.547 99.8313C187.547 101.142 187.284 102.337 186.765 103.379C186.247 104.415 185.486 105.246 184.502 105.849C183.517 106.449 182.337 106.756 180.999 106.756L180.997 106.754ZM189.044 94.9482C188.283 93.5203 187.2 92.388 185.829 91.5835C184.455 90.7764 182.831 90.3667 180.999 90.3667C179.169 90.3667 177.541 90.7764 176.162 91.5835C174.778 92.388 173.696 93.5166 172.946 94.9357C172.193 96.3511 171.796 97.9987 171.763 99.835C171.797 101.664 172.195 103.309 172.946 104.727C173.698 106.147 174.78 107.275 176.162 108.082C177.543 108.889 179.171 109.296 181.001 109.296C182.833 109.296 184.457 108.886 185.831 108.079C187.204 107.275 188.286 106.142 189.047 104.714C189.804 103.289 190.208 101.648 190.242 99.8276C190.208 98.0149 189.805 96.3735 189.047 94.9482" fill="#00EBB6"/>
</svg>
