<svg width="200" height="200" viewBox="0 0 200 200" fill="none" xmlns="http://www.w3.org/2000/svg">
<g clip-path="url(#clip0_748_249)">
<path d="M19.0505 99.7801C23.3603 104.268 23.2924 111.382 18.8809 115.804C21.1206 118.031 24.039 119.161 26.9914 119.161H38.4615C38.4615 119.161 38.4615 110.618 38.4615 107.692C38.4615 104.767 37.3416 101.841 35.1019 99.5807C30.6903 104.002 23.5639 104.069 19.0505 99.7801Z" fill="#4A4A4A"/>
<path d="M18.7177 99.7469C14.3983 104.035 7.49364 104.002 3.23961 99.5807C1.07987 101.808 0 104.767 0 107.692C0 110.618 0 119.161 0 119.161H11.0605C13.8747 119.161 16.7216 118.031 18.8813 115.804C14.6273 111.349 14.5619 104.235 18.7177 99.7469Z" fill="#B0B0B0"/>
<path d="M38.4615 80H26.9914C24.073 80 21.1206 81.1322 18.8809 83.3633C23.2924 87.7923 23.3603 94.9186 19.0505 99.4141C23.53 95.1184 30.6903 95.1517 35.1019 99.5807C37.3416 97.3495 38.4615 94.3858 38.4615 91.4553V80Z" fill="#8F8F8F"/>
<path d="M19.0491 99.4071C18.9818 99.4765 18.9482 99.546 18.8809 99.5807C18.9482 99.6501 18.9818 99.7195 19.0491 99.7542C23.4907 104.231 30.5906 104.196 34.965 99.5807C30.5906 94.9655 23.5244 94.9308 19.0491 99.4071Z" fill="#CDCDCD"/>
<path d="M18.7177 99.3812C14.5619 94.8933 14.6273 87.7791 18.8813 83.3576C16.7216 81.1303 13.9074 80 11.0605 80H0C0 80 0 88.5437 0 91.4691C0 94.3946 1.07987 97.3201 3.23961 99.5807C7.49364 95.126 14.3655 95.0927 18.7177 99.3812Z" fill="#CDCDCD"/>
<path d="M18.72 99.7609C18.7843 99.6914 18.8165 99.6219 18.8809 99.5871C18.8165 99.5176 18.7843 99.448 18.72 99.4133C14.4714 94.9286 7.68024 94.9634 3.49609 99.5871C7.68024 104.176 14.4393 104.246 18.72 99.7609Z" fill="#9B9B9B"/>
<path d="M19.39 99.7458C19.3263 99.6797 19.2627 99.6467 19.2309 99.5807C19.1672 99.6467 19.1354 99.6797 19.0718 99.7458C15.0305 104.204 15.0941 111.305 19.2309 115.665C23.3676 111.272 23.4313 104.204 19.39 99.7458Z" fill="black"/>
<path d="M19.0718 99.4155C19.1354 99.4816 19.1991 99.5146 19.2309 99.5807C19.2945 99.5146 19.3263 99.4816 19.39 99.4155C23.4313 94.9569 23.3676 87.8561 19.2309 83.4966C15.0941 87.8891 15.0305 94.9569 19.0718 99.4155Z" fill="#B0B0B0"/>
<path d="M50.6098 119.161H48.9492V80H63.6956C71.1684 80 74.0247 85.6756 74.0247 91.5514C74.0247 97.4273 71.2016 103.036 63.4299 103.036H50.6098V119.161ZM50.6098 81.7027V101.333H63.4299C69.9728 101.333 72.3641 96.5593 72.3641 91.5514C72.3641 86.5436 69.9728 81.7027 63.7288 81.7027H50.6098ZM82.0954 80H80.4347V119.161H82.0954V80ZM115.873 80H113.813L103.052 96.5926L92.2916 80H90.2989L102.056 97.9615L88.2065 119.161H90.1992L103.052 99.2969L115.906 119.161H117.965L104.049 97.9615L115.873 80ZM124.076 80V119.161H142.874V117.459H125.737V80H124.076ZM148.753 80V119.161H170.175V117.459H150.447V100.799H167.12V99.0966H150.414V81.7027H169.478V80H148.753ZM178.611 80V119.161H200V117.459H180.272V100.799H196.978V99.0966H180.272V81.7027H199.336V80H178.611ZM50.6098 119.161H48.9492V80H63.6956C71.1684 80 74.0247 85.6756 74.0247 91.5514C74.0247 97.4273 71.2016 103.036 63.4299 103.036H50.6098V119.161ZM50.6098 81.7027V101.333H63.4299C69.9728 101.333 72.3641 96.5593 72.3641 91.5514C72.3641 86.5436 69.9728 81.7027 63.7288 81.7027H50.6098ZM82.0954 80H80.4347V119.161H82.0954V80ZM115.873 80H113.813L103.052 96.5926L92.2916 80H90.2989L102.056 97.9615L88.2065 119.161H90.1992L103.052 99.2969L115.906 119.161H117.965L104.049 97.9615L115.873 80ZM124.076 80V119.161H142.874V117.459H125.737V80H124.076ZM148.753 80V119.161H170.175V117.459H150.447V100.799H167.12V99.0966H150.414V81.7027H169.478V80H148.753ZM178.611 80V119.161H200V117.459H180.272V100.799H196.978V99.0966H180.272V81.7027H199.336V80H178.611Z" fill="black"/>
</g>
<defs>
<clipPath id="clip0_748_249">
<rect width="200" height="200" fill="white"/>
</clipPath>
</defs>
</svg>
