<svg width="200" height="200" viewBox="0 0 200 200" fill="none" xmlns="http://www.w3.org/2000/svg">
<g clip-path="url(#clip0_748_298)">
<path d="M19.3991 99.8C23.6324 104.3 23.5658 111.433 19.2324 115.867C21.4324 118.1 24.2991 119.233 27.1991 119.233H38.4658C38.4658 119.233 38.4658 110.667 38.4658 107.733C38.4658 104.8 37.3658 101.867 35.1658 99.6C30.8324 104.033 23.8324 104.1 19.3991 99.8Z" fill="#2EC2E5"/>
<path d="M19.0667 99.8C14.6667 104.1 7.63334 104.067 3.30001 99.6333C1.1 101.867 0 104.833 0 107.767C0 110.7 0 119.267 0 119.267H11.2667C14.1334 119.267 17.0334 118.133 19.2334 115.9C14.9 111.433 14.8334 104.3 19.0667 99.8Z" fill="#E866A5"/>
<path d="M38.4658 80H27.1991C24.3324 80 21.4324 81.1333 19.2324 83.3667C23.5658 87.8 23.6324 94.9333 19.3991 99.4334C23.7991 95.1333 30.8324 95.1667 35.1658 99.6C37.3658 97.3667 38.4658 94.4 38.4658 91.4667V80Z" fill="#FDE75D"/>
<path d="M19.3991 99.4333C19.3324 99.5 19.2991 99.5667 19.2324 99.6C19.2991 99.6667 19.3324 99.7333 19.3991 99.7667C23.7991 104.067 30.8324 104.033 35.1658 99.6C30.8324 95.1667 23.8324 95.1333 19.3991 99.4333Z" fill="#29B35D"/>
<path d="M19.0667 99.4334C14.8334 94.9333 14.9 87.8 19.2334 83.3667C17.0334 81.1333 14.1667 80 11.2667 80H0C0 80 0 88.5667 0 91.5C0 94.4334 1.1 97.3667 3.30001 99.6334C7.63334 95.1667 14.6334 95.1334 19.0667 99.4334Z" fill="#F89C42"/>
<path d="M19.0675 99.8C19.1341 99.7334 19.1675 99.6667 19.2341 99.6334C19.1675 99.5667 19.1341 99.5 19.0675 99.4667C14.6675 95.1667 7.63412 95.2 3.30078 99.6334C7.63412 104.033 14.6341 104.1 19.0675 99.8Z" fill="#EE3A38"/>
<path d="M19.4006 99.8C19.3339 99.7333 19.2673 99.7 19.2339 99.6333C19.1673 99.7 19.1339 99.7333 19.0673 99.8C14.8339 104.3 14.9006 111.467 19.2339 115.867C23.5673 111.433 23.6339 104.3 19.4006 99.8Z" fill="#244598"/>
<path d="M19.0673 99.4334C19.1339 99.5001 19.2006 99.5334 19.2339 99.6001C19.3006 99.5334 19.3339 99.5001 19.4006 99.4334C23.6339 94.9334 23.5673 87.7667 19.2339 83.3667C14.9006 87.8 14.8339 94.9334 19.0673 99.4334Z" fill="#F68C20"/>
<path d="M19.3991 99.8C23.6324 104.3 23.5658 111.433 19.2324 115.867C21.4324 118.1 24.2991 119.233 27.1991 119.233H38.4658C38.4658 119.233 38.4658 110.667 38.4658 107.733C38.4658 104.8 37.3658 101.867 35.1658 99.6C30.8324 104.033 23.8324 104.1 19.3991 99.8Z" fill="#2EC2E5"/>
<path d="M19.0667 99.8C14.6667 104.1 7.63334 104.067 3.30001 99.6333C1.1 101.867 0 104.833 0 107.767C0 110.7 0 119.267 0 119.267H11.2667C14.1334 119.267 17.0334 118.133 19.2334 115.9C14.9 111.433 14.8334 104.3 19.0667 99.8Z" fill="#E866A5"/>
<path d="M38.4658 80H27.1991C24.3324 80 21.4324 81.1333 19.2324 83.3667C23.5658 87.8 23.6324 94.9333 19.3991 99.4334C23.7991 95.1333 30.8324 95.1667 35.1658 99.6C37.3658 97.3667 38.4658 94.4 38.4658 91.4667V80Z" fill="#FDE75D"/>
<path d="M19.3991 99.4333C19.3324 99.5 19.2991 99.5667 19.2324 99.6C19.2991 99.6667 19.3324 99.7333 19.3991 99.7667C23.7991 104.067 30.8324 104.033 35.1658 99.6C30.8324 95.1667 23.8324 95.1333 19.3991 99.4333Z" fill="#29B35D"/>
<path d="M19.0667 99.4334C14.8334 94.9333 14.9 87.8 19.2334 83.3667C17.0334 81.1333 14.1667 80 11.2667 80H0C0 80 0 88.5667 0 91.5C0 94.4334 1.1 97.3667 3.30001 99.6334C7.63334 95.1667 14.6334 95.1334 19.0667 99.4334Z" fill="#F89C42"/>
<path d="M19.0675 99.8C19.1341 99.7334 19.1675 99.6667 19.2341 99.6334C19.1675 99.5667 19.1341 99.5 19.0675 99.4667C14.6675 95.1667 7.63412 95.2 3.30078 99.6334C7.63412 104.033 14.6341 104.1 19.0675 99.8Z" fill="#EE3A38"/>
<path d="M19.4006 99.8C19.3339 99.7333 19.2673 99.7 19.2339 99.6333C19.1673 99.7 19.1339 99.7333 19.0673 99.8C14.8339 104.3 14.9006 111.467 19.2339 115.867C23.5673 111.433 23.6339 104.3 19.4006 99.8Z" fill="#244598"/>
<path d="M19.0673 99.4334C19.1339 99.5001 19.2006 99.5334 19.2339 99.6001C19.3006 99.5334 19.3339 99.5001 19.4006 99.4334C23.6339 94.9334 23.5673 87.7667 19.2339 83.3667C14.9006 87.8 14.8339 94.9334 19.0673 99.4334Z" fill="#F68C20"/>
<path d="M50.0671 119.133H48.4004V80.0334H63.2004C70.7004 80.0334 73.5671 85.7 73.5671 91.5667C73.5671 97.4334 70.7338 103.033 62.9337 103.033H50.0671V119.133ZM50.0671 81.7334V101.333H62.9337C69.5004 101.333 71.9004 96.5667 71.9004 91.5667C71.9004 86.5667 69.5004 81.7334 63.2337 81.7334H50.0671ZM81.6671 80.0334H80.0004V119.133H81.6671V80.0334ZM115.567 80.0334H113.5L102.7 96.6L91.9004 80.0334H89.9004L101.7 97.9667L87.8004 119.133H89.8004L102.7 99.3L115.6 119.133H117.667L103.7 97.9667L115.567 80.0334ZM123.8 80.0334V119.133H142.667V117.433H125.467V80.0334H123.8ZM148.567 80.0334V119.133H170.067V117.433H150.267V100.8H167.001V99.1H150.234V81.7334H169.367V80.0334H148.567ZM178.534 80.0334V119.133H200.001V117.433H180.201V100.8H196.967V99.1H180.201V81.7334H199.334V80.0334H178.534ZM50.0671 119.133H48.4004V80.0334H63.2004C70.7004 80.0334 73.5671 85.7 73.5671 91.5667C73.5671 97.4334 70.7338 103.033 62.9337 103.033H50.0671V119.133ZM50.0671 81.7334V101.333H62.9337C69.5004 101.333 71.9004 96.5667 71.9004 91.5667C71.9004 86.5667 69.5004 81.7334 63.2337 81.7334H50.0671ZM81.6671 80.0334H80.0004V119.133H81.6671V80.0334ZM115.567 80.0334H113.5L102.7 96.6L91.9004 80.0334H89.9004L101.7 97.9667L87.8004 119.133H89.8004L102.7 99.3L115.6 119.133H117.667L103.7 97.9667L115.567 80.0334ZM123.8 80.0334V119.133H142.667V117.433H125.467V80.0334H123.8ZM148.567 80.0334V119.133H170.067V117.433H150.267V100.8H167.001V99.1H150.234V81.7334H169.367V80.0334H148.567ZM178.534 80.0334V119.133H200.001V117.433H180.201V100.8H196.967V99.1H180.201V81.7334H199.334V80.0334H178.534Z" fill="black"/>
</g>
<defs>
<clipPath id="clip0_748_298">
<rect width="200" height="200" fill="white"/>
</clipPath>
</defs>
</svg>
