<svg width="200" height="200" viewBox="0 0 200 200" fill="none" xmlns="http://www.w3.org/2000/svg">
<path d="M0 126.054C0 98.6868 0 85.0035 8.45681 76.5018C16.9135 68 30.5244 68 57.7465 68H168.662C185.97 68 200 82.1052 200 99.5048C200 116.904 185.97 131.01 168.662 131.01H0V126.054Z" fill="#5724E9"/>
<path d="M17.373 87.3436H26.9387C32.6195 87.3436 36.0326 90.0268 36.0326 95.431C36.0326 100.387 33.2604 103.316 27.4458 103.316H22.9176V109.704H17.373V87.3436ZM27.211 99.5774C29.542 99.5774 30.8261 98.3196 30.8261 95.7024C30.8261 93.1537 29.4177 91.726 26.7697 91.726H22.9176V99.5774H27.211Z" fill="white"/>
<path d="M36.6406 101.344C36.6406 95.8719 40.2251 92.6436 45.7346 92.6436C51.244 92.6436 54.8262 95.8719 54.8262 101.344C54.8262 106.772 51.244 109.975 45.7346 109.975C40.2251 109.975 36.6406 106.779 36.6406 101.344ZM49.69 101.344C49.69 98.3522 48.2345 96.5869 45.7346 96.5869C43.2346 96.5869 41.7792 98.3522 41.7792 101.344C41.7792 104.299 43.2323 106.034 45.7346 106.034C48.2369 106.034 49.69 104.299 49.69 101.344Z" fill="white"/>
<path d="M56.0742 104.064H60.6728C60.6728 105.626 61.4498 106.646 64.3888 106.646C67.0601 106.646 68.0061 105.865 68.0061 104.64C68.0061 104.029 67.7034 103.554 66.8325 103.349C65.5479 103.11 64.2495 102.952 62.9451 102.877C60.546 102.672 58.6869 102.299 57.6728 101.584C57.1674 101.198 56.76 100.698 56.4838 100.124C56.2076 99.5494 56.0704 98.9177 56.0836 98.28C56.0836 94.6433 59.8019 92.6375 64.4334 92.6375C69.9099 92.6375 72.4146 94.7448 72.4146 98.6528H67.8724C67.8372 96.8853 67.0272 95.9673 64.492 95.9673C62.1915 95.9673 61.1775 96.7507 61.1775 97.9047C61.1775 98.6127 61.4498 99.1626 62.3958 99.4009C63.2409 99.6039 64.7268 99.7407 66.5202 99.9106C68.5813 100.114 70.0414 100.319 71.2855 101.032C71.8591 101.373 72.3331 101.861 72.6595 102.446C72.9858 103.03 73.1533 103.691 73.1447 104.361C73.1447 107.901 70.1353 109.969 64.424 109.969C58.5414 109.976 56.0742 107.469 56.0742 104.064Z" fill="white"/>
<path d="M76.146 103.929V96.9274H73.6719V92.9156H75.6766C76.4536 92.9156 76.7259 92.4743 76.8269 91.4548L77.0616 89.1115H81.2869V92.9156H86.6274V96.9274H81.2776V103.656C81.2776 105.388 82.0874 105.933 84.1156 105.933C84.899 105.928 85.6802 105.849 86.4489 105.697V109.593C85.3819 109.826 84.2943 109.951 83.2024 109.966C77.9983 109.975 76.146 107.665 76.146 103.929Z" fill="white"/>
<path d="M87.9492 104.064H92.5455C92.5455 105.626 93.3224 106.646 96.2638 106.646C98.9328 106.646 99.8812 105.865 99.8812 104.64C99.8812 104.029 99.576 103.554 98.7075 103.349C97.4228 103.11 96.1245 102.952 94.8201 102.877C92.4187 102.672 90.5596 102.299 89.5455 101.584C89.0404 101.198 88.6333 100.698 88.3575 100.123C88.0817 99.5491 87.945 98.9174 87.9586 98.28C87.9586 94.6433 91.6746 92.6375 96.306 92.6375C101.783 92.6375 104.287 94.7448 104.287 98.6528H99.7567C99.7239 96.8853 98.9117 95.9673 96.3765 95.9673C94.0783 95.9673 93.0643 96.7507 93.0643 97.9047C93.0643 98.6127 93.3342 99.1626 94.2802 99.4009C95.1253 99.6039 96.6136 99.7407 98.4046 99.9106C100.466 100.114 101.926 100.319 103.17 101.032C103.743 101.375 104.217 101.864 104.542 102.45C104.867 103.036 105.033 103.698 105.022 104.369C105.022 107.908 102.015 109.976 96.3014 109.976C90.4164 109.976 87.9492 107.469 87.9492 104.064Z" fill="white"/>
<path d="M105.859 101.344C105.859 95.8719 109.408 92.6436 114.545 92.6436C119.446 92.6436 122.657 95.3975 122.657 100.051H118.127C118.094 97.8778 116.81 96.5869 114.714 96.5869C112.314 96.5869 110.995 98.2507 110.995 101.307C110.995 104.264 112.347 106.027 114.613 106.027C116.81 106.027 118.134 104.769 118.162 102.628H122.69C122.69 107.452 119.278 109.968 114.343 109.968C109.343 109.975 105.859 106.779 105.859 101.344Z" fill="white"/>
<path d="M124.707 92.9149H129.845L129.644 97.7078H129.712C130.416 94.5126 132.212 92.6436 135.491 92.6436C138.904 92.6436 140.89 94.8524 140.89 99.2017C140.89 100.146 140.789 101.649 140.721 102.532H136.066C136.132 101.717 136.167 100.868 136.167 100.358C136.167 97.9108 135.186 96.9268 133.564 96.9268C131.366 96.9268 129.845 98.7274 129.845 102.465V109.703H124.707V92.9149Z" fill="white"/>
<path d="M147.941 92.9182H142.803V109.704H147.941V92.9182Z" fill="white"/>
<path d="M150.557 92.9149H155.696L155.595 96.3486H155.628C156.27 94.0383 158.4 92.6436 161.273 92.6436C165.937 92.6436 168.979 95.9734 168.979 100.936C168.979 106.364 165.928 109.975 161.232 109.975C158.181 109.975 156.303 108.717 155.552 106.671H155.519C155.587 107.794 155.688 109.458 155.688 110.069V116.436H150.557V92.9149ZM163.876 101.139C163.876 98.4206 162.32 96.5869 159.989 96.5869C157.406 96.5869 155.696 98.456 155.696 101.276V102.024C155.696 104.436 157.418 106.036 160.022 106.036C162.317 106.034 163.874 104.063 163.874 101.139H163.876Z" fill="white"/>
<path d="M172.125 103.929V96.9274H169.658V92.9156H171.652C172.428 92.9156 172.701 92.4743 172.802 91.4548L173.037 89.1115H177.262V92.9156H182.602V96.9274H177.262V103.656C177.262 105.388 178.071 105.933 180.1 105.933C180.883 105.928 181.665 105.849 182.433 105.697V109.593C181.366 109.826 180.279 109.951 179.186 109.966C173.984 109.975 172.125 107.665 172.125 103.929Z" fill="white"/>
<path d="M148.447 89.0426C148.447 89.5027 148.331 91.1853 145.629 91.1853H142.812V89.0355C142.812 87.747 143.849 86.8715 145.629 86.8715C147.187 86.8785 148.447 87.518 148.447 89.0426Z" fill="white"/>
</svg>
