<svg width="1760" height="844" viewBox="0 0 1760 844" fill="none" xmlns="http://www.w3.org/2000/svg">
<g clip-path="url(#clip0_326_304)">
<path d="M298.873 547.471C277.92 547.471 259.995 544.327 245.095 538.04C230.196 531.754 218.905 523.487 211.222 513.242C203.54 502.998 199.466 491.821 199 479.713C199 477.85 199.698 476.221 201.095 474.824C202.492 473.193 204.238 472.378 206.334 472.378H238.111C240.672 472.378 242.768 472.961 244.397 474.125C246.026 475.29 247.54 476.919 248.937 479.014C251.265 486.932 256.503 493.567 264.651 498.923C273.032 504.278 284.439 506.956 298.873 506.956C315.169 506.956 327.391 504.278 335.54 498.923C343.92 493.335 348.111 485.767 348.111 476.221C348.111 469.934 346.016 464.695 341.826 460.504C337.635 456.313 331.233 452.703 322.619 449.677C314.238 446.417 301.666 442.575 284.905 438.15C257.434 431.631 237.297 423.016 224.492 412.305C211.688 401.595 205.286 386.227 205.286 366.203C205.286 352.698 209.011 340.705 216.46 330.228C223.911 319.518 234.503 311.135 248.238 305.081C262.206 299.027 278.386 296 296.778 296C316.1 296 332.746 299.376 346.714 306.128C360.915 312.881 371.625 321.379 378.841 331.625C386.291 341.637 390.249 351.649 390.714 361.662C390.714 363.525 390.016 365.271 388.619 366.901C387.222 368.298 385.477 368.996 383.381 368.996H350.206C345.085 368.996 341.592 366.901 339.731 362.709C338.566 355.259 334.026 349.088 326.111 344.199C318.196 339.076 308.418 336.515 296.778 336.515C283.974 336.515 273.846 338.959 266.397 343.849C259.18 348.739 255.571 355.841 255.571 365.154C255.571 371.441 257.434 376.68 261.159 380.871C264.883 385.063 270.703 388.788 278.619 392.048C286.534 395.074 298.058 398.568 313.191 402.526C333.911 407.182 350.323 412.422 362.429 418.243C374.768 424.064 383.846 431.398 389.666 440.247C395.486 449.094 398.397 460.387 398.397 474.125C398.397 489.26 394.206 502.415 385.826 513.592C377.677 524.536 366.037 532.918 350.905 538.739C336.005 544.56 318.661 547.471 298.873 547.471Z" fill="#0D4133"/>
<path d="M467.392 543.978C465.065 543.978 463.085 543.163 461.456 541.533C459.826 539.903 459.011 537.924 459.011 535.595V308.224C459.011 305.663 459.71 303.567 461.106 301.938C462.736 300.307 464.831 299.492 467.392 299.492H621.393C623.954 299.492 626.048 300.307 627.678 301.938C629.308 303.567 630.123 305.663 630.123 308.224V331.625C630.123 334.186 629.308 336.282 627.678 337.912C626.048 339.309 623.954 340.007 621.393 340.007H506.853V401.129H613.71C616.271 401.129 618.366 401.944 619.996 403.573C621.625 405.204 622.44 407.299 622.44 409.86V431.863C622.44 434.425 621.625 436.521 619.996 438.15C618.366 439.547 616.271 440.247 613.71 440.247H506.853V503.463H624.186C626.747 503.463 628.842 504.278 630.472 505.908C632.102 507.305 632.917 509.284 632.917 511.845V535.595C632.917 538.157 632.102 540.252 630.472 541.882C628.842 543.279 626.747 543.978 624.186 543.978H467.392Z" fill="#0D4133"/>
<path d="M759.695 543.978C757.367 543.978 755.387 543.163 753.758 541.533C752.129 539.903 751.313 537.924 751.313 535.595V343.151H686.71C684.383 343.151 682.404 342.336 680.774 340.705C679.144 339.076 678.329 336.981 678.329 334.419V308.224C678.329 305.663 679.027 303.567 680.424 301.938C682.055 300.307 684.15 299.492 686.71 299.492H865.155C867.716 299.492 869.811 300.307 871.441 301.938C873.07 303.567 873.885 305.663 873.885 308.224V334.419C873.885 336.981 873.07 339.076 871.441 340.705C869.811 342.336 867.716 343.151 865.155 343.151H800.901V535.595C800.901 537.924 800.086 539.903 798.456 541.533C797.06 543.163 795.081 543.978 792.52 543.978H759.695Z" fill="#0D4133"/>
<path d="M992.421 543.978C990.094 543.978 988.115 543.163 986.485 541.533C984.855 539.903 984.041 537.924 984.041 535.595V343.151H919.437C917.109 343.151 915.131 342.336 913.501 340.705C911.871 339.076 911.057 336.981 911.057 334.419V308.224C911.057 305.663 911.755 303.567 913.152 301.938C914.781 300.307 916.877 299.492 919.437 299.492H1097.88C1100.44 299.492 1102.53 300.307 1104.16 301.938C1105.79 303.567 1106.62 305.663 1106.62 308.224V334.419C1106.62 336.981 1105.79 339.076 1104.16 340.705C1102.53 342.336 1100.44 343.151 1097.88 343.151H1033.63V535.595C1033.63 537.924 1032.82 539.903 1031.19 541.533C1029.79 543.163 1027.81 543.978 1025.24 543.978H992.421Z" fill="#0D4133"/>
<path d="M1171.37 543.978C1169.04 543.978 1167.06 543.163 1165.43 541.533C1163.8 539.903 1162.99 537.924 1162.99 535.595V307.875C1162.99 305.313 1163.8 303.335 1165.43 301.938C1167.06 300.307 1169.04 299.492 1171.37 299.492H1204.19C1206.76 299.492 1208.74 300.307 1210.14 301.938C1211.76 303.335 1212.58 305.313 1212.58 307.875V502.066H1323.28C1325.83 502.066 1327.93 502.881 1329.56 504.511C1331.19 506.141 1332.01 508.12 1332.01 510.448V535.595C1332.01 537.924 1331.19 539.903 1329.56 541.533C1327.93 543.163 1325.83 543.978 1323.28 543.978H1171.37Z" fill="#0D4133"/>
<path d="M1395.23 543.978C1392.9 543.978 1390.92 543.163 1389.29 541.533C1387.66 539.903 1386.85 537.924 1386.85 535.595V308.224C1386.85 305.663 1387.55 303.567 1388.94 301.938C1390.57 300.307 1392.67 299.492 1395.23 299.492H1549.23C1551.8 299.492 1553.89 300.307 1555.52 301.938C1557.15 303.567 1557.96 305.663 1557.96 308.224V331.625C1557.96 334.186 1557.15 336.282 1555.52 337.912C1553.89 339.309 1551.8 340.007 1549.23 340.007H1434.69V401.129H1541.55C1544.11 401.129 1546.2 401.944 1547.83 403.573C1549.46 405.204 1550.28 407.299 1550.28 409.86V431.863C1550.28 434.425 1549.46 436.521 1547.83 438.15C1546.2 439.547 1544.11 440.247 1541.55 440.247H1434.69V503.463H1552.03C1554.58 503.463 1556.68 504.278 1558.31 505.908C1559.94 507.305 1560.76 509.284 1560.76 511.845V535.595C1560.76 538.157 1559.94 540.252 1558.31 541.882C1556.68 543.279 1554.58 543.978 1552.03 543.978H1395.23Z" fill="#0D4133"/>
</g>
<defs>
<clipPath id="clip0_326_304">
<rect width="1760" height="844" fill="white"/>
</clipPath>
</defs>
</svg>
