<svg width="200" height="200" viewBox="0 0 200 200" fill="none" xmlns="http://www.w3.org/2000/svg">
<path d="M0 121.75C0.695131 116.411 1.36246 111.24 2.02978 106.04C2.72491 100.618 3.50346 95.196 4.14298 89.774C4.22639 89.1901 4.44884 88.2169 4.56006 87.7999C4.58786 87.6608 4.69908 87.5496 4.83811 87.494C5.75568 87.1881 6.67325 86.9657 7.61863 86.8267C8.75865 86.632 10.3714 86.2428 10.8162 85.492C11.567 84.2408 11.845 82.8505 12.5402 81.3768C13.5968 79.1246 14.7924 76.8724 16.4607 75.0373C17.9622 73.3967 19.6027 72.4792 21.6881 72.0899C23.1061 71.8396 24.3574 72.0899 25.414 73.1187C25.6364 73.3411 25.9145 73.6192 26.1925 73.647C29.2511 73.8416 30.697 75.8992 31.7536 78.4017C31.837 78.5685 31.9204 78.7353 32.0594 79.0134C32.5877 78.93 33.1716 78.8188 33.8946 78.6797C33.1716 94.9736 32.4765 111.212 31.7536 127.617C21.132 125.671 10.6494 123.724 0 121.75ZM26.1647 91.915C24.0237 90.9418 21.8549 90.9418 19.7139 91.2199C16.1826 91.6648 13.2909 93.2775 11.567 96.5307C9.95427 99.6171 9.31475 104.261 13.708 107.43C14.2363 107.82 14.709 108.237 15.1817 108.682C16.5719 109.961 16.9612 111.351 16.2939 112.491C15.6543 113.603 14.2363 113.826 12.4011 113.13C11.9006 112.936 11.4001 112.658 10.8996 112.38C10.2601 112.018 9.67622 111.629 8.98109 111.212C8.56401 112.574 8.09132 113.77 7.81327 115.049C7.70205 115.549 7.95229 116.356 8.31376 116.662C10.5104 118.552 13.1241 119.359 15.988 119.331C18.4071 119.303 20.409 118.413 21.9105 116.495C24.8579 112.741 24.4408 107.708 20.8817 104.511C19.7139 103.454 18.3515 102.62 17.2114 101.563C15.6265 100.118 16.127 98.1156 18.1846 97.5039C18.8241 97.3092 19.5749 97.2258 20.2422 97.3092C21.4934 97.4483 22.7447 97.7541 24.0515 98.0044C24.7745 96.0024 25.4696 94.0004 26.1647 91.915ZM13.569 84.7969C14.4309 84.5466 15.7656 84.1574 16.3495 83.9905C16.5441 83.9349 16.7387 83.8793 16.9334 83.8515L17.6285 83.7125C17.6841 83.7125 17.7119 83.6847 17.7119 83.6291C17.7953 83.4066 18.0456 82.6837 18.1568 82.2666C18.9354 79.0968 20.3256 76.2607 23.2452 74.4811C23.3286 74.4255 23.3286 74.2587 23.3564 74.1475C19.1022 73.0631 14.9592 78.8744 13.569 84.7969ZM25.1359 75.8158C22.1052 77.4285 20.9373 79.8198 20.0754 82.7949C21.9105 82.2388 23.4954 81.7661 25.0525 81.2378C25.3028 81.1544 25.6086 80.7095 25.6086 80.4593C25.5252 79.0134 25.3306 77.5675 25.1359 75.8158ZM27.0823 75.5934C27.2769 77.2339 27.4716 78.7632 27.6662 80.4315C28.5282 80.1812 29.3623 79.931 30.2243 79.6529C29.6404 77.929 29.0287 76.2885 27.0823 75.5934Z" fill="black"/>
<path d="M49.3547 124.002C43.9326 125.198 38.4272 126.421 32.8105 127.645C33.5057 111.156 34.2008 94.8067 34.8959 78.4295C35.0628 78.3182 35.2296 78.2348 35.3964 78.1236C36.036 78.9021 36.7033 79.6529 37.315 80.4592C38.0657 81.4324 39.0111 81.7383 40.2067 81.7661C43.2653 81.8495 43.3209 81.8773 43.7658 84.8247C45.6844 97.7263 47.5473 110.656 49.4381 123.585C49.4381 123.669 49.3825 123.752 49.3547 124.002Z" fill="black"/>
<path d="M128.155 94.1672C129.962 94.1672 131.908 94.1672 133.882 94.1672C133.799 95.2238 133.743 96.197 133.66 97.4483C134.133 97.0034 134.383 96.7253 134.689 96.5307C136.051 95.6687 137.303 94.5287 138.804 94.056C143.559 92.5824 147.34 95.3907 147.841 100.813C148.313 106.179 146.84 111.045 143.003 114.938C139.527 118.469 135.328 119.359 130.518 117.746C129.906 120.999 129.267 124.225 128.655 127.506C126.403 127.506 124.178 127.506 121.898 127.506C123.984 116.411 126.069 105.317 128.155 94.1672ZM140.723 104.205C140.834 101.146 140.222 99.8395 138.915 99.3946C137.581 98.9497 135.857 99.5893 134.772 101.258C133.994 102.481 133.326 103.871 132.965 105.262C132.381 107.403 132.047 109.599 131.714 111.796C131.658 112.157 131.964 112.769 132.298 112.936C134.105 113.992 136.19 113.52 137.747 111.685C139.749 109.321 140.584 106.457 140.723 104.205Z" fill="black"/>
<path d="M95.8716 118.108C93.6472 118.108 91.4784 118.108 89.1705 118.108C89.81 114.715 90.4217 111.407 91.0335 108.098C91.3671 106.179 91.7286 104.261 91.951 102.342C92.0901 101.23 92.0623 99.9785 90.8388 99.4224C89.532 98.8385 88.392 99.4224 87.4466 100.34C85.6949 102.064 84.9719 104.316 84.4992 106.652C83.8319 110.1 83.1924 113.575 82.5251 117.023C82.4695 117.385 82.3582 117.746 82.247 118.108C80.0226 118.108 77.8538 118.108 75.6016 118.108C77.7704 106.624 79.9114 95.2239 82.0802 83.7403C84.3046 83.7403 86.4734 83.7403 88.7534 83.7403C87.9193 88.1613 87.1129 92.4989 86.2232 97.2536C88.0583 95.4463 89.7544 94.2229 91.951 93.8336C95.9272 93.1107 98.8745 95.2517 98.8467 99.3112C98.8189 101.981 98.2628 104.65 97.8457 107.291C97.2896 110.906 96.5667 114.493 95.8716 118.108Z" fill="black"/>
<path d="M123.456 104.372C123.261 108.57 121.843 112.964 118.034 116.3C115.476 118.552 112.445 119.498 109.053 119.248C104.715 118.942 101.712 116.161 100.906 111.824C99.7101 105.484 102.991 98.1433 108.33 95.2238C110.638 93.9447 113.112 93.4443 115.698 93.7779C120.62 94.473 123.511 98.1989 123.456 104.372ZM116.504 103.704C116.504 103.704 116.504 103.704 116.532 103.565C116.588 101.091 115.809 99.617 114.224 99.1443C112.584 98.6716 110.804 99.4502 109.776 101.619C108.886 103.454 108.246 105.484 107.857 107.486C107.579 108.848 107.662 110.378 108.024 111.712C108.636 114.048 111.138 114.743 112.973 113.158C113.78 112.463 114.53 111.49 114.892 110.517C115.643 108.264 115.837 105.984 116.504 103.704Z" fill="black"/>
<path d="M178.259 94.3341C180.594 94.3341 182.847 94.3341 185.321 94.3341C185.877 99.5615 186.433 104.817 187.017 110.433C187.323 109.71 187.518 109.321 187.657 108.904C189.353 104.4 191.077 99.8951 192.717 95.3907C193.051 94.5009 193.468 94.1673 194.414 94.2229C196.249 94.3063 198.112 94.2507 199.975 94.2507C199.975 94.4453 200.03 94.6122 199.975 94.7234C196.36 102.231 192.856 109.794 189.019 117.162C187.601 119.915 185.46 122.334 183.431 124.725C181.679 126.755 179.315 127.978 176.535 128.729C175.923 126.866 175.311 125.059 174.672 123.14C175.311 122.862 175.923 122.668 176.451 122.334C177.814 121.416 179.232 120.499 180.455 119.414C181.929 118.08 182.485 116.523 182.012 114.326C180.594 107.736 179.482 101.063 178.259 94.3341Z" fill="black"/>
<path d="M180.178 83.1842C179.705 84.9915 179.288 86.6598 178.871 88.3281C174.283 88.2447 172.587 89.6628 172.42 93.7224C173.894 93.7224 175.34 93.7224 177.036 93.7224C176.73 95.4185 176.508 96.9478 176.146 98.4492C176.091 98.6717 175.507 98.8941 175.173 98.9219C173.922 98.9775 172.671 98.9497 171.336 98.9497C170.113 105.373 168.889 111.712 167.666 118.108C165.358 118.108 163.078 118.108 160.742 118.108C161.966 111.712 163.161 105.428 164.385 98.9497C163.3 98.9497 162.355 98.9497 161.187 98.9497C161.521 97.1424 161.854 95.5019 162.188 93.7224C163.272 93.7224 164.273 93.7224 165.358 93.7224C166.192 89.3013 167.554 85.2974 172.003 83.4066C174.645 82.3222 177.398 82.2388 180.178 83.1842Z" fill="black"/>
<path d="M56.7227 117.635C57.3066 115.939 57.8349 114.382 58.3354 112.936C60.1983 113.353 61.9222 113.853 63.674 114.076C64.4803 114.187 65.4535 113.909 66.1486 113.492C67.2886 112.852 67.3999 111.268 66.4545 110.211C65.815 109.516 64.9808 108.932 64.1745 108.431C61.3383 106.652 59.1973 104.455 59.809 100.757C60.4208 97.0868 62.8954 95.0849 66.3433 94.1673C69.4575 93.3331 72.5438 93.5278 75.658 94.7512C75.1019 96.4751 74.6014 98.0322 74.1009 99.5893C72.8219 99.3391 71.6541 99.061 70.4862 98.8942C69.9023 98.8108 69.2072 98.7273 68.7067 98.9776C67.956 99.3669 67.1218 99.923 66.7325 100.646C66.232 101.591 66.8994 102.425 67.6779 103.009C68.957 103.927 70.3472 104.705 71.5428 105.706C74.6014 108.265 75.0463 112.352 72.5994 115.522C71.9599 116.356 71.1536 117.134 70.236 117.607C65.7594 119.998 61.2827 119.776 56.7227 117.635Z" fill="black"/>
<path d="M152.956 94.3341C155.208 94.3341 157.349 94.3341 159.602 94.3341C158.1 102.286 156.626 110.155 155.125 118.108C152.956 118.108 150.787 118.108 148.535 118.108C150.009 110.155 151.483 102.259 152.956 94.3341Z" fill="black"/>
<path d="M160.715 87.633C160.687 89.8853 158.936 91.5258 156.656 91.4702C154.765 91.4146 153.514 90.0521 153.514 88.1057C153.541 85.9369 155.293 84.213 157.434 84.2408C159.381 84.2686 160.743 85.6867 160.715 87.633Z" fill="black"/>
</svg>
