<svg width="200" height="200" viewBox="0 0 200 200" fill="none" xmlns="http://www.w3.org/2000/svg">
<g clip-path="url(#clip0_852_428)">
<path d="M43.3152 82.8038C43.2763 82.5208 43.0291 82.3638 42.8239 82.3467C42.6203 82.3296 38.6308 82.269 38.6308 82.269C38.6308 82.269 35.2942 79.0289 34.9646 78.6993C34.6351 78.3697 33.9914 78.4692 33.7411 78.5438C33.738 78.5454 33.1145 78.7381 32.0651 79.0631C31.8894 78.4941 31.6313 77.7944 31.2628 77.0917C30.075 74.8248 28.3352 73.6261 26.2332 73.623C26.2301 73.623 26.2285 73.623 26.2254 73.623C26.0793 73.623 25.9347 73.637 25.7886 73.6495C25.7264 73.5748 25.6642 73.5018 25.5989 73.4302C24.6831 72.4508 23.5093 71.9734 22.1023 72.0154C19.3877 72.0932 16.684 74.0537 14.4918 77.5363C12.9495 79.9866 11.7756 83.065 11.4429 85.4484C8.32566 86.4139 6.1459 87.0886 6.09771 87.1042C4.5243 87.5986 4.47456 87.6468 4.26933 89.1301C4.11697 90.251 0 122.086 0 122.086L34.5014 128.053L49.4548 124.336C49.4548 124.336 43.354 83.0868 43.3152 82.8038ZM30.3377 79.5979C29.5433 79.8436 28.6399 80.1234 27.6604 80.4266C27.6403 79.0522 27.477 77.1399 26.8364 75.4872C28.8965 75.8774 29.9102 78.208 30.3377 79.5979ZM25.8554 80.9863C24.0472 81.546 22.0742 82.157 20.0951 82.7696C20.6517 80.638 21.7074 78.5158 23.004 77.1243C23.486 76.6066 24.1607 76.0298 24.9598 75.7002C25.7108 77.2673 25.8741 79.486 25.8554 80.9863ZM22.1566 73.822C22.7941 73.808 23.3305 73.948 23.7892 74.2496C23.0553 74.6305 22.3463 75.1778 21.6809 75.8914C19.9567 77.7416 18.6351 80.6132 18.1081 83.3837C16.4647 83.8921 14.8571 84.3912 13.377 84.8483C14.3115 80.4872 17.9666 73.9433 22.1566 73.822Z" fill="#95BF47"/>
<path d="M42.8264 82.3483C42.6228 82.3312 38.6333 82.2706 38.6333 82.2706C38.6333 82.2706 35.2969 79.0305 34.9673 78.7009C34.8444 78.578 34.6781 78.5143 34.5039 78.4879L34.5055 128.052L49.4575 124.336C49.4575 124.336 43.3567 83.0884 43.3178 82.8054C43.2789 82.5224 43.0301 82.3654 42.8264 82.3483Z" fill="#5E8E3E"/>
<path d="M26.2162 90.0366L24.4796 96.5338C24.4796 96.5338 22.5424 95.6523 20.2461 95.7968C16.8784 96.0099 16.8427 98.1336 16.877 98.6669C17.0604 101.573 24.705 102.207 25.1342 109.014C25.4716 114.368 22.2936 118.031 17.7149 118.32C12.2189 118.667 9.19336 115.425 9.19336 115.425L10.3579 110.472C10.3579 110.472 13.4036 112.77 15.8414 112.616C17.4335 112.515 18.0025 111.22 17.945 110.304C17.7056 106.514 11.4804 106.738 11.0871 100.509C10.7559 95.2683 14.1981 89.9573 21.793 89.4784C24.719 89.2903 26.2162 90.0366 26.2162 90.0366Z" fill="white"/>
<path d="M69.1471 103.642C67.4277 102.709 66.544 101.922 66.544 100.841C66.544 99.4658 67.7715 98.5821 69.6883 98.5821C71.9197 98.5821 73.912 99.5151 73.912 99.5151L75.4834 94.7008C75.4834 94.7008 74.0385 93.5704 69.7855 93.5704C63.867 93.5704 59.7651 96.9598 59.7651 101.725C59.7651 104.427 61.6804 106.49 64.2355 107.962C66.2988 109.141 67.036 109.976 67.036 111.204C67.036 112.481 66.0044 113.512 64.0891 113.512C61.2347 113.512 58.5391 112.038 58.5391 112.038L56.8691 116.853C56.8691 116.853 59.3596 118.523 63.5493 118.523C69.6405 118.523 74.0123 115.526 74.0123 110.123C74.0107 107.227 71.801 105.164 69.1471 103.642Z" fill="black"/>
<path d="M93.4118 93.5226C90.4153 93.5226 88.0575 94.9475 86.241 97.108L86.1422 97.0586L88.7452 83.4529H81.9663L75.3848 118.082H82.1637L84.4228 106.245C85.3064 101.774 87.6149 99.0247 89.7769 99.0247C91.2989 99.0247 91.8896 100.056 91.8896 101.531C91.8896 102.464 91.7908 103.594 91.595 104.527L89.0413 118.083H95.8206L98.4722 104.084C98.7674 102.61 98.9644 100.843 98.9644 99.6631C98.9616 95.8311 96.9479 93.5226 93.4118 93.5226Z" fill="black"/>
<path d="M114.287 93.5226C106.132 93.5226 100.73 100.891 100.73 109.093C100.73 114.348 103.971 118.572 110.063 118.572C118.069 118.572 123.473 111.401 123.473 103.002C123.473 98.1396 120.623 93.5226 114.287 93.5226ZM110.947 113.368C108.638 113.368 107.655 111.403 107.655 108.946C107.655 105.067 109.67 98.7303 113.354 98.7303C115.76 98.7303 116.545 100.793 116.545 102.807C116.545 106.982 114.533 113.368 110.947 113.368Z" fill="black"/>
<path d="M140.811 93.5226C136.235 93.5226 133.639 97.5505 133.639 97.5505H133.542L133.935 93.9159H127.942C127.648 96.3724 127.106 100.104 126.567 102.905L121.852 127.709H128.631L130.496 117.688H130.644C130.644 117.688 132.035 118.572 134.623 118.572C142.58 118.572 147.786 110.419 147.786 102.166C147.786 97.5999 145.771 93.5226 140.811 93.5226ZM134.327 113.465C132.567 113.465 131.526 112.482 131.526 112.482L132.656 106.146C133.443 101.922 135.652 99.1219 138.011 99.1219C140.074 99.1219 140.712 101.037 140.712 102.855C140.712 107.227 138.109 113.465 134.327 113.465Z" fill="black"/>
<path d="M157.464 83.7968C155.303 83.7968 153.584 85.5162 153.584 87.726C153.584 89.74 154.861 91.1155 156.776 91.1155H156.874C158.987 91.1155 160.804 89.6906 160.853 87.1863C160.853 85.2216 159.527 83.7968 157.464 83.7968Z" fill="black"/>
<path d="M147.986 118.082H154.763L159.382 94.0638H152.554L147.986 118.082Z" fill="black"/>
<path d="M176.622 94.0146H171.906L172.151 92.8842C172.544 90.5757 173.92 88.5124 176.179 88.5124C177.385 88.5124 178.34 88.8563 178.34 88.8563L179.666 83.5517C179.666 83.5517 178.487 82.9626 175.981 82.9626C173.575 82.9626 171.169 83.6503 169.351 85.2217C167.042 87.1863 165.961 90.0345 165.422 92.8842L165.226 94.0146H162.082L161.099 99.1235H164.244L160.658 118.083H167.437L171.023 99.1235H175.689L176.622 94.0146Z" fill="black"/>
<path d="M192.928 94.064C192.928 94.064 188.691 104.74 186.788 110.567H186.689C186.56 108.69 185.019 94.064 185.019 94.064H177.896L181.975 116.117C182.074 116.607 182.025 116.904 181.827 117.247C181.04 118.769 179.715 120.244 178.143 121.325C176.866 122.258 175.442 122.847 174.312 123.24L176.179 128.987C177.554 128.693 180.402 127.562 182.809 125.303C185.904 122.406 188.752 117.935 191.699 111.844L200 94.0624H192.928V94.064Z" fill="black"/>
</g>
<defs>
<clipPath id="clip0_852_428">
<rect width="200" height="200" fill="white"/>
</clipPath>
</defs>
</svg>
