<svg width="200" height="200" viewBox="0 0 200 200" fill="none" xmlns="http://www.w3.org/2000/svg">
<g clip-path="url(#clip0_748_268)">
<path d="M33.2239 79.5223C39.3203 83.96 42.8015 91.1955 42.8188 99.6063C42.8269 103.608 42.1555 106.879 40.821 109.243C39.3609 111.828 37.0968 113.304 34.4153 113.304C32.7369 113.304 31.2756 112.697 30.2052 111.69C28.9582 112.773 27.4554 113.331 25.8588 113.331C23.2427 113.331 21.2363 112.051 20.2859 109.8C19.5433 108.041 19.4984 105.829 20.0218 103.326L20.0507 103.189C20.4163 101.498 20.3708 100.161 20.0222 99.2288C19.7797 98.5801 19.4198 98.1994 18.9925 98.0309C18.0181 97.6465 16.6105 98.2858 15.6802 100C14.221 102.689 14.2573 107.266 16.1282 110.876C18.4482 115.353 23.1691 118.049 30.4819 118.049C37.5333 118.049 42.5858 114.69 45.0924 108.776C47.599 102.863 47.338 94.8456 44.1933 86.6495L44.0971 86.4011L48.5054 84.6657C56.2975 104.612 48.587 122.803 30.4819 122.803C21.4518 122.803 15.0874 119.167 11.9276 113.07C9.34303 108.083 9.29336 101.832 11.5221 97.7257C13.5285 94.0293 17.371 92.2836 20.7246 93.6068C24.2149 94.9839 25.7511 99.0127 24.7105 104.045L24.6782 104.197C24.3135 105.884 24.3325 107.203 24.6456 107.945C24.8399 108.405 25.1093 108.577 25.8588 108.577C26.4775 108.577 27.0204 108.307 27.5315 107.637C27.9262 107.119 28.2651 106.407 28.5284 105.494C28.5513 105.396 28.5766 105.298 28.6039 105.2L28.6437 105.062C28.8468 104.236 28.9932 103.264 29.0709 102.144C29.4934 96.0507 26.947 91.6148 22.602 89.6395C18.4728 87.7624 13.437 88.493 9.81446 91.6773C6.38449 94.6923 4.48889 99.572 4.76091 104.851C5.0543 110.545 7.79426 116.124 12.8133 120.501L12.9661 120.633L9.88691 124.245C3.79017 119.006 0.395853 112.158 0.0320563 105.097C-0.312516 98.4095 2.13482 92.1095 6.69501 88.101C11.7196 83.6842 18.7401 82.6657 24.5554 85.3093C30.7302 88.1163 34.3525 94.4269 33.7947 102.474C33.6872 104.023 33.4631 105.413 33.1233 106.642C32.8472 107.852 33.4195 108.55 34.4153 108.55C35.2975 108.55 36.0432 108.064 36.7015 106.898C37.5805 105.342 38.0901 102.859 38.0835 99.6161C38.0543 85.3335 26.4973 76.7784 11.4422 80.7218L10.9849 80.8452L9.72337 76.2634C18.6741 73.7799 27.0181 75.005 33.2239 79.5223Z" fill="#10B981"/>
<path fill-rule="evenodd" clip-rule="evenodd" d="M61.1797 92.4056H66.0856L68.9319 102.507C69.3067 103.832 69.5314 105.496 69.5314 105.496C69.5314 105.496 69.681 103.832 69.9804 102.545L72.265 92.4056H77.2079L79.4925 102.545C79.7924 103.832 79.9794 105.496 79.9794 105.496C79.9794 105.496 80.1668 103.832 80.541 102.507L83.4247 92.4056H88.2928L82.3013 111.361H77.77L75.2612 101.145C74.9612 99.859 74.7743 98.2699 74.7743 98.2699C74.7743 98.2699 74.5495 99.859 74.2496 101.145L71.7403 111.361H67.1716L61.1797 92.4056Z" fill="black"/>
<path fill-rule="evenodd" clip-rule="evenodd" d="M102.035 101.866C102.035 98.9145 100.163 96.7198 97.5781 96.7198C94.8823 96.7198 92.9352 98.9145 92.9352 101.866C92.9352 104.854 94.8823 107.011 97.5781 107.011C100.163 107.011 102.035 104.893 102.035 101.866ZM87.8418 101.865C87.8418 96.4173 91.1375 92.0283 96.3053 92.0283C98.4776 92.0283 100.799 92.8987 102.148 94.7145V92.4069H107.053V111.324H102.148V109.054C100.837 110.87 98.4776 111.702 96.3053 111.702C91.1375 111.702 87.8418 107.313 87.8418 101.865Z" fill="black"/>
<path fill-rule="evenodd" clip-rule="evenodd" d="M111.286 112.27C113.608 112.27 114.469 111.475 115.143 110L115.555 109.167L107.729 92.407H112.821L116.604 101.26C117.165 102.584 117.84 104.476 117.84 104.476C117.84 104.476 118.626 102.243 119.038 101.146L122.446 92.407H127.464L119.15 111.853C117.128 116.508 113.608 116.885 111.286 116.885V112.27Z" fill="black"/>
<path fill-rule="evenodd" clip-rule="evenodd" d="M142.966 111.323H147.984V86.4282H142.966V111.323ZM131.17 96.5299H128.248V92.444H131.17V91.1953C131.17 86.8067 133.566 84.915 136.749 84.915C138.434 84.915 140.307 85.4065 141.618 86.0882L140.194 89.8329C139.783 89.644 138.959 89.2659 138.098 89.2659C137.049 89.2659 136.188 89.7955 136.188 91.7628V92.444H140.869V96.5299H136.188V111.323H131.17V96.5299Z" fill="black"/>
<path fill-rule="evenodd" clip-rule="evenodd" d="M152.929 112.27C155.25 112.27 156.111 111.475 156.786 110L157.197 109.167L149.371 92.407H154.464L158.246 101.26C158.808 102.584 159.483 104.476 159.483 104.476C159.483 104.476 160.269 102.243 160.681 101.146L164.088 92.407H169.106L160.792 111.853C158.771 116.508 155.25 116.885 152.929 116.885V112.27Z" fill="black"/>
<path fill-rule="evenodd" clip-rule="evenodd" d="M181.988 100.239C181.614 97.8552 179.742 96.2662 177.456 96.2662C175.284 96.2662 173.411 97.8552 172.926 100.239H181.988ZM167.906 101.865C167.906 96.4173 172.102 92.0283 177.607 92.0283C182.699 92.0283 186.707 96.4173 186.707 101.789C186.707 102.698 186.594 103.605 186.594 103.605H173C173.599 106.216 175.734 107.465 178.206 107.465C180.002 107.465 181.875 106.935 183.261 105.989L185.133 109.621C183.036 111.021 180.603 111.702 178.168 111.702C172.701 111.702 167.906 108.108 167.906 101.865Z" fill="black"/>
<path fill-rule="evenodd" clip-rule="evenodd" d="M188.502 92.4065H193.445V96.0382C193.97 94.487 195.88 92.0283 199.999 92.0283V97.5517C195.655 97.5517 193.52 99.5568 193.52 104.06V111.323H188.502V92.4065Z" fill="black"/>
</g>
<defs>
<clipPath id="clip0_748_268">
<rect width="200" height="200" fill="white"/>
</clipPath>
</defs>
</svg>
