<svg width="200" height="200" viewBox="0 0 200 200" fill="none" xmlns="http://www.w3.org/2000/svg">
<path d="M33.2239 79.5223C39.3203 83.96 42.8015 91.1955 42.8188 99.6063C42.8269 103.608 42.1555 106.879 40.821 109.243C39.3609 111.828 37.0968 113.304 34.4153 113.304C32.7369 113.304 31.2756 112.697 30.2052 111.69C28.9582 112.773 27.4554 113.331 25.8589 113.331C23.2427 113.331 21.2364 112.051 20.2859 109.8C19.5433 108.041 19.4985 105.829 20.0218 103.326L20.0508 103.189C20.4163 101.498 20.3708 100.161 20.0222 99.2288C19.7797 98.5801 19.4198 98.1995 18.9925 98.0309C18.0181 97.6465 16.6105 98.2858 15.6803 100C14.221 102.689 14.2573 107.266 16.1282 110.876C18.4482 115.353 23.1691 118.049 30.4819 118.049C37.5333 118.049 42.5858 114.69 45.0924 108.776C47.599 102.863 47.3381 94.8456 44.1933 86.6496L44.0971 86.4011L48.5054 84.6657C56.2975 104.612 48.587 122.803 30.4819 122.803C21.4518 122.803 15.0874 119.167 11.9276 113.07C9.34303 108.083 9.29337 101.832 11.5221 97.7257C13.5285 94.0293 17.371 92.2836 20.7246 93.6068C24.2149 94.9839 25.7511 99.0127 24.7105 104.045L24.6782 104.197C24.3135 105.884 24.3325 107.203 24.6457 107.945C24.84 108.405 25.1094 108.577 25.8589 108.577C26.4775 108.577 27.0205 108.307 27.5315 107.637C27.9262 107.119 28.2651 106.407 28.5284 105.494C28.5513 105.396 28.5766 105.298 28.6039 105.2L28.6437 105.062C28.8468 104.236 28.9932 103.264 29.0709 102.144C29.4934 96.0507 26.947 91.6148 22.6021 89.6395C18.4728 87.7624 13.437 88.493 9.81446 91.6773C6.3845 94.6923 4.48889 99.5721 4.76092 104.851C5.0543 110.545 7.79427 116.124 12.8133 120.501L12.9661 120.633L9.88692 124.245C3.79017 119.006 0.395853 112.158 0.0320563 105.097C-0.312516 98.4095 2.13482 92.1095 6.69501 88.101C11.7196 83.6842 18.7401 82.6657 24.5554 85.3094C30.7302 88.1163 34.3526 94.4269 33.7947 102.474C33.6872 104.023 33.4631 105.413 33.1233 106.642C32.8472 107.852 33.4195 108.55 34.4153 108.55C35.2975 108.55 36.0433 108.064 36.7015 106.898C37.5805 105.342 38.0902 102.859 38.0835 99.6161C38.0543 85.3335 26.4973 76.7784 11.4422 80.7218L10.9849 80.8452L9.72338 76.2634C18.6741 73.7799 27.0181 75.005 33.2239 79.5223Z" fill="black"/>
<path fill-rule="evenodd" clip-rule="evenodd" d="M61.1777 92.4056H66.0837L68.9299 102.507C69.3047 103.832 69.5294 105.496 69.5294 105.496C69.5294 105.496 69.679 103.832 69.9785 102.545L72.263 92.4056H77.206L79.4905 102.545C79.7904 103.832 79.9774 105.496 79.9774 105.496C79.9774 105.496 80.1648 103.832 80.5391 102.507L83.4227 92.4056H88.2909L82.2994 111.361H77.7681L75.2593 101.145C74.9593 99.859 74.7724 98.2699 74.7724 98.2699C74.7724 98.2699 74.5476 99.859 74.2477 101.145L71.7383 111.361H67.1697L61.1777 92.4056Z" fill="black"/>
<path fill-rule="evenodd" clip-rule="evenodd" d="M102.033 101.866C102.033 98.9146 100.161 96.7199 97.5761 96.7199C94.8803 96.7199 92.9332 98.9146 92.9332 101.866C92.9332 104.855 94.8803 107.011 97.5761 107.011C100.161 107.011 102.033 104.893 102.033 101.866ZM87.8398 101.865C87.8398 96.4174 91.1356 92.0284 96.3033 92.0284C98.4757 92.0284 100.797 92.8988 102.146 94.7146V92.407H107.051V111.324H102.146V109.054C100.835 110.87 98.4757 111.702 96.3033 111.702C91.1356 111.702 87.8398 107.313 87.8398 101.865Z" fill="black"/>
<path fill-rule="evenodd" clip-rule="evenodd" d="M111.286 112.27C113.608 112.27 114.469 111.475 115.143 110L115.555 109.167L107.729 92.4071H112.821L116.604 101.26C117.165 102.584 117.84 104.476 117.84 104.476C117.84 104.476 118.626 102.244 119.038 101.146L122.446 92.4071H127.464L119.15 111.853C117.128 116.508 113.608 116.885 111.286 116.885V112.27Z" fill="black"/>
<path fill-rule="evenodd" clip-rule="evenodd" d="M142.966 111.323H147.984V86.4282H142.966V111.323ZM131.17 96.5299H128.248V92.444H131.17V91.1953C131.17 86.8067 133.566 84.915 136.749 84.915C138.434 84.915 140.307 85.4065 141.618 86.0882L140.194 89.8329C139.783 89.644 138.959 89.2659 138.098 89.2659C137.049 89.2659 136.188 89.7955 136.188 91.7628V92.444H140.869V96.5299H136.188V111.323H131.17V96.5299Z" fill="black"/>
<path fill-rule="evenodd" clip-rule="evenodd" d="M152.927 112.27C155.248 112.27 156.109 111.475 156.784 110L157.195 109.167L149.369 92.4071H154.462L158.244 101.26C158.806 102.584 159.481 104.476 159.481 104.476C159.481 104.476 160.267 102.244 160.679 101.146L164.086 92.4071H169.104L160.79 111.853C158.769 116.508 155.248 116.885 152.927 116.885V112.27Z" fill="black"/>
<path fill-rule="evenodd" clip-rule="evenodd" d="M181.988 100.239C181.614 97.8553 179.742 96.2663 177.456 96.2663C175.284 96.2663 173.411 97.8553 172.926 100.239H181.988ZM167.906 101.865C167.906 96.4174 172.102 92.0284 177.607 92.0284C182.699 92.0284 186.707 96.4174 186.707 101.789C186.707 102.698 186.594 103.605 186.594 103.605H173C173.599 106.216 175.734 107.465 178.206 107.465C180.002 107.465 181.875 106.935 183.261 105.989L185.133 109.621C183.036 111.021 180.603 111.702 178.168 111.702C172.701 111.702 167.906 108.108 167.906 101.865Z" fill="black"/>
<path fill-rule="evenodd" clip-rule="evenodd" d="M188.502 92.4066H193.445V96.0383C193.97 94.4872 195.88 92.0284 199.999 92.0284V97.5518C195.655 97.5518 193.52 99.5569 193.52 104.06V111.323H188.502V92.4066Z" fill="black"/>
</svg>
